<?xml version="1.0" standalone="no"?>
<!DOCTYPE svg PUBLIC "-//W3C//DTD SVG 1.1//EN" "http://www.w3.org/Graphics/SVG/1.1/DTD/svg11.dtd" >
<svg xmlns="http://www.w3.org/2000/svg" xmlns:xlink="http://www.w3.org/1999/xlink" version="1.1">
<metadata></metadata>
<defs>
<font id="big_caslonmedium" horiz-adv-x="1024" >
<font-face units-per-em="2048" ascent="1638" descent="-410" />
<missing-glyph horiz-adv-x="500" />
<glyph unicode="&#xfb01;" horiz-adv-x="1064" d="M18 0h482v20q-20 4 -46 5.5t-48.5 6.5t-40 15t-21.5 31v805h346q18 -4 24.5 -14.5t6.5 -26.5v-756q0 -18 -13.5 -30.5t-33 -19.5t-44 -10t-48.5 -6v-20h440v20q-20 4 -42 5.5t-40 5.5t-31.5 13t-17.5 30v917h-12l-60 -22h-473v59q0 23 1 44.5t3 47t4 66.5q6 96 37 150.5 t70 81t80 31.5t69 5q33 -20 46.5 -52t26.5 -59.5t35.5 -48t72.5 -20.5q29 0 54 23.5t25 64.5q0 61 -72.5 95t-187.5 34q-129 0 -240.5 -70.5t-164.5 -197.5q-18 -45 -23.5 -106.5t-5.5 -147.5h-125l-33 -90h156v-793q0 -16 -15.5 -27.5t-39 -18.5t-50 -12t-51.5 -8v-20z" />
<glyph unicode="&#xfb02;" horiz-adv-x="1064" d="M18 0h484v20q-20 4 -46 5.5t-49.5 6.5t-41 15t-21.5 31v805h379v-795q0 -33 -30.5 -46t-125.5 -19v-23h477v23q-39 4 -67.5 5t-47 5t-27.5 14t-9 31v1417h-12l-52 -72q-35 25 -89 43.5t-132 18.5q-63 0 -124.5 -18.5t-115 -53.5t-96.5 -85t-67 -111q-18 -45 -23.5 -103.5 t-5.5 -144.5h-123l-33 -90h154v-793q0 -16 -15.5 -27.5t-39 -18.5t-50 -12t-51.5 -8v-20zM346 969v59q0 23 1 42.5t3 44t4 65.5q6 96 37 149t67 80t68.5 32t44.5 5q55 -23 90 -57.5t64 -81.5v-338h-379z" />
<glyph horiz-adv-x="682" />
<glyph horiz-adv-x="0" />
<glyph horiz-adv-x="0" />
<glyph horiz-adv-x="0" />
<glyph unicode="&#x9;" horiz-adv-x="430" />
<glyph unicode="&#xd;" />
<glyph unicode=" " />
<glyph unicode="!" horiz-adv-x="620" d="M190 1151q4 -6 19.5 -46t36 -127t39 -230.5t26.5 -356.5h25q8 215 25.5 358.5t36 230.5t34 126t17.5 45q0 47 -12.5 100.5t-31 99.5t-41 76.5t-42.5 30.5q-23 0 -46.5 -30.5t-42 -76.5t-31 -99.5t-12.5 -100.5zM199 117q0 -53 34.5 -85t88.5 -32q53 0 86.5 30t33.5 83 t-33.5 91t-86.5 38t-88 -36t-35 -89z" />
<glyph unicode="&#x22;" horiz-adv-x="729" d="M131 1382q0 -39 27.5 -171t50.5 -343h24q12 104 25.5 192.5t26 154t20.5 109.5t8 60q0 43 -30.5 73t-61.5 30t-60.5 -30t-29.5 -75zM416 1382q0 -39 27.5 -171t50.5 -343h24q12 104 25.5 192.5t26 154t20.5 109.5t8 60q0 43 -30.5 73t-61.5 30t-60.5 -30t-29.5 -75z" />
<glyph unicode="#" horiz-adv-x="1533" d="M186 342h310l-140 -389l50 -12l143 401h248l-140 -389l50 -12l143 401h315l58 139h-324l90 260h305l58 142h-312l142 391l-49 12l-146 -403h-244l138 391l-50 12l-145 -403h-315l-56 -142h322l-92 -260h-301zM590 481l96 260h256l-92 -260h-260z" />
<glyph unicode="$" horiz-adv-x="987" d="M86 236q0 -104 88 -168t236 -74l-2 -291h38l-2 287h45h29q14 0 29 2l-2 -289h39l-2 293q141 18 228 101t87 200q0 104 -62.5 177t-172.5 108q-23 6 -40.5 12t-39.5 14v445q59 -18 84.5 -65.5t25.5 -106.5q0 -23 -3 -38.5t-9 -31.5q8 -31 31.5 -51.5t58.5 -20.5 q43 0 71.5 32t28.5 75q0 100 -82.5 161.5t-205.5 77.5l2 242h-39l2 -237q-12 2 -27 2h-24h-27q-12 0 -25 -2l2 237h-38l2 -242q-63 -10 -118.5 -34.5t-95.5 -63.5t-63.5 -91t-23.5 -118q0 -100 62 -168.5t155 -103.5q14 -4 37.5 -13.5t46.5 -15.5v-454q-82 16 -111 66 t-29 112q0 23 3 38t10 31q-8 31 -34 51.5t-61 20.5q-41 0 -71.5 -31.5t-30.5 -74.5zM260 854q0 78 40 128t110 71v-396q-66 27 -108 73t-42 124zM444 18v449q27 -6 51.5 -12t51.5 -17v-418q-12 -2 -27.5 -3t-32.5 -1h-22q-10 0 -21 2zM444 647v412q10 2 23.5 3t26.5 1 q14 0 28.5 -1t24.5 -3v-443q-51 14 -103 31zM582 29v399q63 -23 108 -66.5t45 -123.5q0 -74 -39 -130.5t-114 -78.5z" />
<glyph unicode="%" horiz-adv-x="1325" d="M102 1081q0 -74 26 -128t65.5 -88t87 -50t90.5 -16q51 0 98 20.5t83 57t57.5 88t21.5 112.5q0 66 -22.5 116t-58.5 84t-82 52.5t-95 18.5q-57 0 -107.5 -21.5t-86.5 -58.5t-56.5 -85t-20.5 -102zM174 1071q0 43 14.5 83t40 70.5t61.5 49t79 18.5t78.5 -18.5t61.5 -49 t39 -70.5t13 -83t-13 -82t-38 -68.5t-60.5 -48t-78.5 -18.5t-80 18.5t-62.5 48t-40 68.5t-14.5 82zM207 45l49 -31l870 1264l-49 33zM715 274q0 -74 25.5 -128t65.5 -87.5t87 -48t90 -14.5q51 0 98 18.5t83 55t57.5 88t21.5 112.5q0 66 -22.5 116t-58.5 84t-82 52.5 t-95 18.5q-57 0 -107.5 -21.5t-86 -58.5t-56 -85t-20.5 -102zM786 264q0 43 14.5 83t40 71t61.5 49t79 18t79 -18t61.5 -49t39 -71t13.5 -83t-13.5 -82t-38 -68.5t-60.5 -48t-79 -18.5t-80 18.5t-62.5 48t-40 68.5t-14.5 82z" />
<glyph unicode="&#x26;" horiz-adv-x="1748" d="M96 348q0 -74 28 -141.5t79 -117.5t127 -77.5t170 -27.5q84 0 159.5 27.5t138 70.5t109.5 92t74 88q35 -55 78 -107.5t93 -93.5t107.5 -64.5t124.5 -23.5q72 0 138.5 29t120 74t91.5 97t52 93l-19 8q-14 -25 -38.5 -53t-55.5 -53t-66.5 -41t-76.5 -16q-80 0 -134.5 34.5 t-107.5 90.5q-55 57 -92 105t-66 85q82 94 156 189.5t150.5 174t163 133t192.5 68.5v25l-715 -17v-24q47 -2 94.5 -5t86 -15.5t62 -37t23.5 -69.5q0 -27 -18 -71t-50 -97t-74 -112.5t-89 -118.5q-35 57 -83 124.5t-105 133.5q-51 57 -104.5 111t-117.5 104q20 12 59.5 38.5 t77.5 66.5t66.5 93.5t28.5 118.5q0 66 -26.5 115t-68.5 80.5t-95.5 48t-108.5 16.5q-63 0 -126 -22.5t-113 -62.5t-81.5 -96t-31.5 -124t17 -117t46 -90t68 -79t84 -85q-70 -35 -141.5 -81t-130 -104t-94.5 -131t-36 -159zM311 430q0 61 19.5 117.5t50.5 103.5t67.5 86 t71.5 68l50 -45t62 -56.5t61.5 -60.5t49.5 -55q37 -45 67 -81t55.5 -70t50 -69.5t51.5 -82.5q-43 -39 -82 -69t-81 -49.5t-91 -29.5t-113 -10q-63 0 -116.5 23.5t-92.5 65.5t-59.5 97.5t-20.5 116.5zM459 1290q0 25 8 53.5t24.5 53t43 41t63.5 16.5q41 0 76 -22.5 t59.5 -58.5t37.5 -82t13 -93q0 -86 -23.5 -145.5t-76.5 -114.5q-55 49 -95 85t-75 85q-31 43 -43 80t-12 102z" />
<glyph unicode="'" horiz-adv-x="454" d="M135 1382q0 -39 27.5 -171t50.5 -343h25q12 104 25 192.5t25.5 154t20.5 109.5t8 60q0 43 -30.5 73t-61.5 30t-60.5 -30t-29.5 -75z" />
<glyph unicode="(" horiz-adv-x="641" d="M74 604q0 -178 45 -315t115.5 -242.5t160.5 -187.5t178 -148l27 27q-82 57 -162 137t-144.5 185.5t-104 241.5t-39.5 302q0 164 37.5 295t100 236.5t144.5 188.5t168 146l-29 27q-94 -70 -183 -153.5t-158.5 -191.5t-112.5 -242t-43 -306z" />
<glyph unicode=")" horiz-adv-x="641" d="M41 -262l27 -27q90 66 179 148t159.5 187.5t115.5 242.5t45 315q0 172 -43 306t-112.5 242t-158.5 191.5t-183 153.5l-29 -27q86 -63 168 -146t144.5 -188.5t100.5 -236.5t38 -295q0 -166 -40 -302t-104.5 -241.5t-144.5 -185.5t-162 -137z" />
<glyph unicode="*" horiz-adv-x="794" d="M80 965l8 -13q45 2 77 10.5t66 30.5q39 23 68 52.5t70 60.5l18 -8q-10 -51 -22.5 -87t-12.5 -87q0 -43 8.5 -77t26.5 -73h16q18 39 27.5 73t9.5 77q0 45 -13 85t-24 89l21 10q37 -33 68.5 -62.5t70.5 -52.5q35 -23 67 -32t75 -11l8 13q-20 41 -43 58t-66 44t-81 34 t-87 21v27q47 16 85 24.5t83 34.5q41 25 63.5 45.5t45.5 57.5l-8 14q-20 0 -37 -3t-32 -7t-32.5 -13.5t-40.5 -21.5q-25 -14 -42 -27.5t-31.5 -28t-29 -28.5t-32.5 -31l-22 13q10 49 22 90t12 84t-9 75.5t-28 71.5h-16q-18 -39 -26.5 -71.5t-8.5 -75.5q0 -49 12.5 -88 t22.5 -86l-20 -13q-20 16 -34 29.5t-27 27t-30.5 28t-44.5 30.5q-37 23 -67.5 33t-75.5 12l-6 -14q23 -37 46.5 -58.5t59.5 -44.5q39 -25 81 -34t89 -25v-27q-49 -14 -87 -21t-83 -34q-37 -20 -60.5 -40.5t-47.5 -59.5z" />
<glyph unicode="+" horiz-adv-x="1433" d="M256 494h420v-422h82v422h420v79h-420v420h-82v-420h-420v-79z" />
<glyph unicode="," horiz-adv-x="497" d="M104 102q0 -47 28 -74.5t71 -27.5q47 0 72.5 23.5t29.5 64.5q23 -4 37 -38t14 -66q0 -84 -35.5 -143.5t-95.5 -112.5l15 -15q35 25 66.5 54.5t58 65.5t42 78t15.5 89q0 41 -13.5 82t-38 72.5t-58 51t-76.5 19.5q-53 0 -92.5 -31.5t-39.5 -91.5z" />
<glyph unicode="-" horiz-adv-x="524" d="M25 461h473v143h-473v-143z" />
<glyph unicode="." horiz-adv-x="497" d="M131 115q0 -53 35 -85t88 -32t86 30t33 83t-33 91t-86 38t-88 -36t-35 -89z" />
<glyph unicode="/" horiz-adv-x="636" d="M-102 -268l67 -25l758 1823l-68 26z" />
<glyph unicode="0" horiz-adv-x="1091" d="M55 504q0 -135 47.5 -232.5t121 -160t160.5 -90t167 -27.5q96 0 184 36t154.5 103.5t106.5 160.5t40 204q0 117 -41 208t-108.5 153.5t-153.5 95t-176 32.5q-111 0 -203 -40t-158.5 -106.5t-103.5 -153.5t-37 -183zM154 487q0 82 29.5 157t81.5 132.5t124 91t158 33.5 q88 0 159.5 -33.5t123 -91t80 -132.5t28.5 -157t-27.5 -156.5t-79 -131t-123 -90t-157.5 -33.5t-159 33.5t-126 90t-82.5 131.5t-29.5 156z" />
<glyph unicode="1" horiz-adv-x="647" d="M78 946q29 0 57.5 -5t52 -15.5t39 -26.5t15.5 -41v-745q0 -23 -14.5 -40.5t-36 -27.5t-49 -16t-56.5 -6v-23h489v23q-25 0 -53 4t-53 14t-41 26.5t-16 43.5v745q0 25 15 41t40 27.5t53.5 16.5t54.5 5v23h-497v-23z" />
<glyph unicode="2" horiz-adv-x="892" d="M47 662l21 -13q49 80 121.5 136.5t177.5 56.5q49 0 85.5 -18.5t60.5 -49.5t36 -70.5t12 -80.5q0 -76 -48 -159t-119.5 -163t-153.5 -152.5t-152 -132.5l6 -16h699l102 274l-21 7q-10 -23 -21 -42.5t-30.5 -35t-51.5 -23.5t-87 -8h-369v4q66 61 136.5 127t129 136.5 t96.5 148.5t38 164q0 111 -68.5 174t-171.5 63q-76 0 -143.5 -35.5t-123.5 -87t-97 -108t-64 -96.5z" />
<glyph unicode="3" horiz-adv-x="811" d="M-18 -385q0 -33 14 -56.5t39.5 -39t57.5 -23.5t61 -8q121 0 229.5 37t192 103.5t133 160.5t49.5 209q0 66 -29 125t-77 105t-110.5 77t-129.5 45q63 49 115.5 94t90 90.5t58 92.5t20.5 100q0 117 -88 189.5t-227 72.5q-66 0 -118 -22.5t-93 -59.5t-72.5 -83t-54.5 -95 l18 -10q45 70 104.5 97.5t147.5 27.5q90 0 152.5 -49.5t62.5 -132.5q0 -76 -32.5 -139.5t-83 -119t-110.5 -102.5t-114 -88l7 -12h26q74 0 140.5 -22.5t116.5 -64.5t80 -99.5t30 -131.5q0 -109 -40 -175t-92.5 -103t-100.5 -50.5t-64 -13.5q-43 0 -74 23.5t-55.5 52.5 t-49 52.5t-59.5 23.5q-41 0 -56 -22.5t-15 -55.5z" />
<glyph unicode="4" horiz-adv-x="1128" d="M-5 14.5q5 -4.5 19 -4.5h602v-473h181v473h278v158h-282v821h-60l-639 -817l-94 -137q-10 -16 -5 -20.5zM135 168l481 608v-608h-481z" />
<glyph unicode="5" horiz-adv-x="804" d="M0 -342q0 -47 25.5 -79t65.5 -52.5t90 -29.5t102 -9q82 0 168 37t155.5 103.5t113.5 158.5t44 203q0 84 -28.5 159.5t-84 132t-139.5 89t-195 32.5q-41 0 -72.5 -3t-68.5 -9l35 381h489q29 96 51.5 167t36.5 108l-24 8q-18 -43 -41 -64.5t-90 -21.5h-436l-91 -883l21 -4 q12 35 28.5 60.5t39 43t56.5 26.5t81 9q45 0 92 -16.5t86 -53t63.5 -96t24.5 -151.5q0 -66 -14.5 -132.5t-46 -118.5t-79.5 -85t-116 -33t-99.5 32t-53 69.5t-44 69.5t-71.5 32q-33 0 -53.5 -23.5t-20.5 -56.5z" />
<glyph unicode="6" horiz-adv-x="1048" d="M55 508q0 -100 37 -193.5t100.5 -164t148.5 -110.5t179 -40q106 0 194.5 38t151 105.5t97 155.5t34.5 186q0 90 -32.5 169t-92 138.5t-142.5 93.5t-185 34q-47 0 -79 -5.5t-67 -15.5q55 109 124 198t147 159.5t158.5 123t160.5 86.5l-16 25q-96 -27 -200.5 -76 t-207 -116.5t-194.5 -154.5t-163 -187.5t-112 -213t-41 -235.5zM242 416q0 111 28.5 222.5t108.5 199.5q23 25 51.5 34t63.5 9q84 0 144 -44t98 -113t56.5 -154t18.5 -169q0 -186 -80 -279t-205 -93q-131 0 -207.5 101t-76.5 286z" />
<glyph unicode="7" horiz-adv-x="909" d="M8 625l25 -9q10 25 25.5 55.5t42 58.5t68.5 46.5t107 18.5h555q-43 -104 -103 -235.5t-125.5 -268.5t-131 -269.5t-120 -242t-92.5 -185t-48 -96.5l137 -6q61 160 127 328t130.5 325.5t121.5 301t103.5 255t75 182.5t34.5 85h-799z" />
<glyph unicode="8" horiz-adv-x="995" d="M74 324q0 -76 35.5 -138.5t94 -106.5t131.5 -65.5t144 -21.5q92 0 174 28.5t142.5 83t96.5 129t36 162.5q0 82 -36 145.5t-86 112.5t-107.5 83t-100.5 59q59 37 115.5 76.5t99.5 86t68.5 98.5t25.5 113q0 66 -28.5 124.5t-81 101.5t-128 68.5t-171.5 25.5 q-76 0 -150 -29.5t-131 -81t-92 -121t-35 -151.5q0 -74 23.5 -133.5t62.5 -107.5t89 -89t104 -78q-51 -35 -103.5 -73.5t-95.5 -84.5t-69.5 -99.5t-26.5 -116.5zM221 334q0 43 11.5 92t34 97t56 90t80.5 69q82 -39 147.5 -80t112 -89t72 -103t25.5 -127q0 -47 -13.5 -93.5 t-42 -83t-76.5 -60t-116 -23.5q-127 0 -209 81.5t-82 229.5zM240 1210q0 59 21.5 104.5t58 76t84 47t98.5 16.5q63 0 113.5 -22.5t84 -61.5t51 -91.5t17.5 -109.5q0 -123 -50 -210t-155 -146q-49 29 -105.5 63.5t-105.5 83t-80.5 109.5t-31.5 141z" />
<glyph unicode="9" horiz-adv-x="1048" d="M53 512q0 -94 31 -176t89 -142.5t141 -95.5t190 -35q47 0 89 6.5t87 24.5q-53 -119 -118.5 -214t-141.5 -166.5t-159 -122t-169 -87.5l12 -30q150 39 307.5 129t287.5 220t213 295t83 355q0 102 -36.5 196.5t-100 165t-150.5 112.5t-188 42q-98 0 -184 -39t-148.5 -104.5 t-98.5 -151.5t-36 -182zM231 606q0 166 79 258t210 92q74 0 127 -36.5t89 -96t52.5 -135t16.5 -153.5q0 -104 -21.5 -198.5t-87.5 -178.5q-25 -31 -59.5 -41.5t-77.5 -10.5q-84 0 -145.5 47.5t-102.5 120t-60.5 160.5t-19.5 172z" />
<glyph unicode=":" horiz-adv-x="538" d="M154 111q0 -55 36.5 -84t83.5 -29t83 31t36 82q0 47 -35.5 81.5t-83.5 34.5q-47 0 -83.5 -31.5t-36.5 -84.5zM154 745q0 -53 36.5 -84.5t83.5 -31.5t83 32.5t36 83.5q0 47 -35.5 82t-83.5 35q-47 0 -83.5 -31.5t-36.5 -85.5z" />
<glyph unicode=";" horiz-adv-x="538" d="M123 90q0 -41 26.5 -70.5t71.5 -29.5q27 0 52.5 13t37.5 44q20 -8 26.5 -27.5t6.5 -48.5q0 -88 -56.5 -155.5t-144.5 -83.5l7 -21q47 4 94 30t84 66.5t60.5 95t23.5 113.5q0 41 -14.5 75t-38 58.5t-53.5 39t-62 14.5q-47 0 -84 -33t-37 -80zM125 512q0 -53 35 -83t82 -30 t80.5 32t33.5 81q0 47 -33.5 80t-80.5 33t-82 -31t-35 -82z" />
<glyph unicode="&#x3c;" horiz-adv-x="1366" d="M125 559l1116 -559v125l-883 434l883 445v112z" />
<glyph unicode="=" horiz-adv-x="1433" d="M297 381h840v80h-840v-80zM297 614h840v80h-840v-80z" />
<glyph unicode="&#x3e;" horiz-adv-x="1366" d="M125 0l1116 559l-1116 557v-125l883 -432l-883 -444v-115z" />
<glyph unicode="?" horiz-adv-x="784" d="M150 117q0 -53 34.5 -85t87.5 -32t87 30t34 83t-33.5 91t-87.5 38q-53 0 -87.5 -36t-34.5 -89zM225 1161q35 4 68 6t47 2q45 0 91 -7t83 -29.5t59.5 -63.5t22.5 -106q0 -51 -9 -86t-29.5 -59.5t-51.5 -42t-72 -30.5q-49 -16 -101 -25t-106 -20v-358h37v166 q123 25 193.5 47.5t111.5 60.5q20 18 33.5 54.5t21 79.5t10.5 86.5t3 78.5q0 45 -3 97.5t-15.5 104.5t-34 99.5t-58.5 79.5q-53 51 -113.5 67.5t-152.5 16.5v101h-35v-320z" />
<glyph unicode="@" horiz-adv-x="1777" d="M111 340q0 -156 52 -284t148.5 -221t231.5 -145t299 -52q381 0 637 245l-17 19q-131 -109 -269 -168.5t-316 -59.5q-143 0 -265.5 44t-211.5 126t-138 198t-49 263q0 172 64.5 338t178 295t270.5 209t341 80q123 0 229.5 -38t184.5 -107.5t122 -167t44 -216.5 q0 -113 -37 -217t-105.5 -186t-166 -131t-220.5 -49q-16 0 -29.5 2t-29.5 4l348 835h-121l-51 -71q-20 25 -48 43t-63 18q-59 0 -135 -39t-154.5 -104.5t-154.5 -149.5t-135.5 -173t-95 -177t-35.5 -160q0 -41 20.5 -71.5t79.5 -30.5q66 0 136.5 35t139 88t132 119.5 t114.5 128.5l13 -4l-146 -336q66 -35 154 -35q139 0 254.5 53t199.5 142.5t131.5 208t47.5 249.5t-52.5 239.5t-141.5 185.5t-209 119t-257 42q-190 0 -357 -75t-292 -202t-197.5 -298t-72.5 -361zM580 213q0 55 26.5 128t69.5 149.5t97 151.5t109.5 133.5t106.5 94t88 35.5 q45 0 67.5 -34.5t22.5 -73.5q0 -63 -28.5 -136t-73.5 -147t-102.5 -141.5t-114.5 -119.5t-108.5 -84t-86.5 -32q-37 0 -55 22.5t-18 53.5z" />
<glyph unicode="A" horiz-adv-x="1441" d="M-66 0v23q53 6 91 28.5t45 30.5q14 14 47 67.5t80 157.5q43 96 96 219t109.5 253t111.5 262.5t104 246.5l-20 45q37 16 66.5 39t52 47.5t38 47t23.5 36.5h17q63 -170 120.5 -322.5t109.5 -294t101.5 -273.5t98.5 -261q23 -63 42 -105t44 -95q4 -8 18 -29t38 -42.5 t58.5 -37.5t81.5 -18v-25h-598v20q6 0 30 4.5t49.5 14.5t45 28.5t19.5 47.5q0 18 -11.5 60t-32 102.5t-47 134t-57.5 153.5h-545q-31 -78 -59.5 -148.5t-56.5 -142.5q-43 -111 -43 -155q0 -27 16 -44.5t42 -28.5t55.5 -16t56.5 -10v-20h-437zM379 608h510q-35 92 -71 184.5 t-69.5 177.5t-61.5 155.5t-46 115.5q-12 -27 -35.5 -84t-58.5 -139t-77 -185.5t-91 -224.5z" />
<glyph unicode="B" horiz-adv-x="1525" d="M80 0h706q90 0 186.5 6t174.5 35q45 16 90 48t82 77t59.5 104t22.5 133q0 82 -34 146.5t-90 112t-128 75t-145 35.5v8q139 29 226 112t87 218q0 123 -67.5 203t-172.5 119q-66 25 -136.5 34t-147.5 9h-691v-21q55 -6 86 -17.5t62 -43.5q12 -12 19 -40t12.5 -63t7.5 -72.5 t2 -74.5q0 -61 1 -108.5t1 -92.5v-90v-109v-118q0 -61 -1 -120t-2 -108t-1 -78q0 -33 -2 -66.5t-7.5 -64t-11.5 -54t-16 -36.5q-29 -33 -75 -51t-97 -27v-20zM516 483v125v131h199q59 0 103 -5t89 -19q55 -18 101.5 -50t80 -76t53 -96.5t19.5 -111.5q0 -104 -47 -179 t-133 -120q-66 -35 -135.5 -43t-128.5 -8q-70 0 -107 15t-55 38q-25 33 -30 83t-7 128q0 35 -1 83t-1 105zM516 770v66v131q0 78 1 164t3 157q2 37 3 59.5t2 38t3 25.5t4 23q18 6 53.5 10t78.5 4q143 0 235 -41q78 -35 130 -115t52 -182q0 -139 -95 -233.5t-279 -104.5 q-29 -2 -76 -2h-115z" />
<glyph unicode="C" horiz-adv-x="1589" d="M57 741q0 -166 57.5 -304t165 -237.5t261 -153.5t344.5 -54q115 0 203 19.5t149 45t94 47t37 21.5q10 0 37 -28.5t51 -63.5h25l6 450h-25q-18 -88 -68.5 -171t-123 -146.5t-165.5 -102t-200 -38.5q-135 0 -245.5 55t-188.5 150.5t-120 224.5t-42 276q0 139 40 271.5 t115 236.5t185.5 167.5t251.5 63.5q102 0 193.5 -36.5t164 -100t126 -149.5t79.5 -185l25 2v459h-23q-12 -18 -26.5 -35.5t-27.5 -31t-24.5 -22.5t-15.5 -9t-36.5 22.5t-94 49t-154 49t-215.5 22.5q-135 0 -243.5 -28.5t-194.5 -76.5t-149.5 -111.5t-106.5 -133.5 q-37 -59 -60.5 -117.5t-36.5 -112t-18.5 -100.5t-5.5 -84z" />
<glyph unicode="D" horiz-adv-x="1744" d="M84 0h747q94 0 194.5 13.5t195 46t178.5 88t147.5 139.5t100 200.5t36.5 270.5q0 133 -33.5 236.5t-90 182t-132 136t-161.5 94.5q-66 29 -133.5 43t-135 20.5t-135.5 6.5h-131q-229 0 -391 -1t-248 -1v-21q53 -6 96 -20.5t74 -51.5q12 -14 18.5 -39.5t9.5 -57.5t3 -68 v-74v-400v-118q0 -61 -1 -120t-2 -108t-1 -78q0 -33 -2 -67.5t-6.5 -65t-9.5 -55.5t-15 -35q-25 -29 -73 -49t-99 -27v-20zM516 492v239q0 244 2 420t12 276q14 4 38 6.5t51.5 5.5t56.5 4t53 1q72 0 121 -5t90 -14q106 -18 196.5 -81.5t156 -154.5t102.5 -203.5t37 -231.5 q0 -268 -110 -451.5t-331 -247.5q-47 -14 -101 -19t-106 -5q-55 0 -117.5 11t-103.5 52q-12 12 -21.5 38t-13.5 57.5t-7 65.5t-3 62q-2 68 -2 175z" />
<glyph unicode="E" horiz-adv-x="1456" d="M84 0h1253l103 391l-23 6q-51 -88 -99 -150.5t-99.5 -105.5t-106.5 -66.5t-121 -31.5q-59 -8 -113.5 -10t-89.5 -2q-82 0 -151.5 12t-88 41t-23.5 87t-7 124q0 20 -1 50t-1 63v69v62v114t4 84h53h41q20 0 41 -1t52 -3q61 -4 107 -22.5t79 -46.5q37 -35 70.5 -105 t50.5 -135h24v645h-24q-12 -57 -27.5 -103t-41 -81t-66.5 -59.5t-103 -39.5q-27 -6 -66.5 -9t-79.5 -5t-71 -2h-41v23q0 18 -1 52t-1 87v131q0 135 3 237.5t7 135.5q20 4 66.5 7t89.5 3q135 0 229.5 -12.5t128.5 -28.5q145 -72 312 -279l20 11l-139 338h-1131v-21 q55 -8 90 -17.5t66 -41.5q12 -12 19.5 -40t10.5 -63t4 -73.5t1 -75.5v-400v-118q0 -61 -1 -120t-2 -108t-1 -78q0 -33 -2 -66.5t-7.5 -64t-11.5 -54t-16 -36.5q-29 -33 -73 -51t-95 -27v-20z" />
<glyph unicode="F" horiz-adv-x="1343" d="M84 0h655v20q-84 4 -128 19.5t-62.5 44.5t-23.5 87t-7 124q0 35 -1 83t-1 105v123v131h55h43t43 -1t54 -3q59 -4 103 -21.5t83 -52.5q43 -39 73.5 -111.5t47.5 -137.5h24v659h-24q-8 -51 -18.5 -95t-35 -81t-67.5 -63.5t-117 -43.5q-29 -6 -71.5 -9t-82.5 -5t-73 -2h-37 v64v131t1 160.5t3 156.5q2 37 4 62.5t4 42t5.5 28.5t5.5 25q10 0 31.5 1t46 2t51 2t47.5 1q121 0 212 -11.5t126 -27.5q72 -35 147.5 -108.5t159.5 -178.5l20 10l-139 345h-1139v-21q55 -8 90 -17.5t66 -41.5q12 -12 19.5 -40t10.5 -63t4 -73.5t1 -75.5v-400v-118 q0 -61 -1 -120t-2 -108t-1 -78q0 -33 -2 -66.5t-7.5 -64t-11.5 -54t-16 -36.5q-29 -33 -73 -51t-95 -27v-20z" />
<glyph unicode="G" horiz-adv-x="1689" d="M57 739q0 -174 56.5 -314t162 -237.5t259 -147.5t348.5 -50q98 0 196.5 20.5t179 50t137 58t70.5 41.5v299q0 47 2 94t17 70q18 29 59 42t76 17v20h-600v-20q119 -10 166 -64q35 -37 42 -94t7 -129t-8 -139.5t-25 -93.5q-49 -76 -134 -110t-183 -34q-137 0 -243.5 52.5 t-180.5 146.5t-113 226t-39 292q0 145 41 277.5t117 234t184.5 161.5t243.5 60q127 0 229.5 -43t167.5 -112q51 -53 96.5 -135t67.5 -174h25v446h-19q-27 -35 -45 -59.5t-22 -24.5t-39 21.5t-99.5 47t-158.5 47t-217 21.5q-205 0 -348.5 -58.5t-241.5 -154.5 q-70 -68 -116 -143.5t-71.5 -149t-36 -140t-10.5 -118.5z" />
<glyph unicode="H" horiz-adv-x="1843" d="M90 0h604v20q-43 4 -88 22.5t-69 53.5q-16 23 -18.5 78t-2.5 115v440h809v-72v-114v-137q0 -72 -2 -140q0 -25 -1 -51.5t-3 -51t-5 -43t-7 -24.5q-16 -27 -67.5 -48t-127.5 -28v-20h629v20q-53 6 -98.5 22.5t-71.5 57.5q-12 18 -15.5 68.5t-3.5 110.5q0 74 -1 135t-1 118 v119v137v351v63q0 33 2 64.5t6.5 57.5t12.5 40q23 41 70 62.5t96 27.5v21h-617v-21q47 -2 94.5 -15.5t83.5 -68.5q16 -27 19.5 -68.5t5.5 -80.5q2 -68 2 -121v-105v-106v-119h-809v76v131q0 76 1 159t3 154q2 47 20.5 78t45 48.5t59.5 25.5t62 12v21h-611v-21 q53 -6 95 -21.5t71 -50.5q12 -14 18.5 -39.5t9.5 -57.5t3 -68v-74v-400v-118q0 -61 -1 -120t-2 -108t-1 -78q0 -33 -2 -68.5t-5 -66t-8.5 -54.5t-13.5 -34q-25 -29 -72 -48t-98 -28v-20z" />
<glyph unicode="I" horiz-adv-x="817" d="M94 0h621v20q-43 4 -96.5 22.5t-77.5 53.5q-16 23 -18.5 78t-2.5 115v463v116v107q0 51 1 101t1 102q2 47 3 100t20 88q27 49 76 65.5t92 22.5v21h-613v-21q53 -6 95.5 -21.5t70.5 -50.5q12 -14 18.5 -39.5t9.5 -57.5t3 -68v-74v-400v-118q0 -61 -1 -120t-2 -108t-1 -78 q0 -33 -1 -66.5t-4 -64t-8.5 -53t-15.5 -35.5q-31 -35 -75 -53t-95 -27v-20z" />
<glyph unicode="J" horiz-adv-x="817" d="M18 111q0 -39 15.5 -67t41 -43t57.5 -23.5t65 -8.5q59 0 129.5 22.5t136.5 74.5q53 41 86 89t33 115v482v116v107q0 51 1 101t1 102q2 47 4 101t18 87q27 49 78 65.5t94 22.5v21h-631v-21q53 -6 103.5 -18.5t79.5 -46.5q12 -14 17 -41t8 -61t3 -70v-74v-400v-118v-121 q0 -57 -1 -106.5t-1 -78.5q-2 -57 -7 -114.5t-17 -102.5q-14 -47 -46 -79.5t-83 -32.5q-16 0 -34.5 7t-29.5 21v7q43 6 72 27.5t29 68.5q0 41 -30 70.5t-71 29.5q-47 0 -84 -30.5t-37 -79.5z" />
<glyph unicode="K" horiz-adv-x="1570" d="M90 0h658v20q-20 2 -48 7.5t-57 14.5t-53.5 23.5t-38.5 34.5q-20 27 -26.5 78t-8.5 111q-2 68 -2 162v202q6 16 11 23.5t22 7.5q14 0 33.5 -14.5t72.5 -73.5q127 -139 245 -275.5t249 -287.5q12 -14 22.5 -21.5t18.5 -11.5h461v20q-57 4 -103.5 14.5t-72.5 20.5 q-6 2 -24.5 16.5t-43.5 34t-51.5 44t-46.5 49.5q-86 96 -179.5 200.5t-175.5 196.5t-141 160.5t-76 89.5q35 37 77 79t86 87t89 90t88 84q111 102 217.5 180t210.5 88v21h-549v-21q53 -8 94.5 -34.5t41.5 -86.5q0 -35 -28 -78t-63 -84q-49 -53 -116.5 -124.5t-136 -139 t-131 -122t-99.5 -76.5v188v129t1 94t3 88q2 86 21.5 133.5t48 71t65.5 30.5t76 11v21h-635v-21q53 -6 94 -22.5t70 -51.5q23 -29 28 -94t5 -143v-400v-118v-121q0 -57 -1 -106.5t-1 -78.5q0 -33 -1 -68.5t-4 -67t-9.5 -56.5t-16.5 -37q-25 -29 -72 -45t-98 -25v-20z" />
<glyph unicode="L" horiz-adv-x="1449" d="M70 0h1314l76 422l-20 6q-25 -61 -51.5 -117.5t-65.5 -104.5t-93 -85t-136 -60q-35 -10 -80 -16t-88 -9t-79 -4t-52 -1q-41 0 -82 5t-76 12t-59.5 17.5t-32.5 20.5q-18 29 -21.5 88t-5.5 125q0 70 -1 126t-1 110v108v127v137t1 118.5t2 117t3 131.5q2 55 25.5 89 t56.5 52.5t70 26.5t63 12v21h-653v-21q53 -6 101 -24.5t77 -53.5q12 -14 18.5 -38.5t9.5 -56.5t3 -69v-71v-398v-118q0 -61 -1 -120t-2 -108t-1 -78q0 -33 -3 -66.5t-7.5 -64t-11.5 -54t-17 -36.5q-29 -33 -79 -51t-101 -27v-20z" />
<glyph unicode="M" horiz-adv-x="2029" d="M51 0h535v20q-88 12 -138.5 40t-75 76t-30.5 119t-6 167v262q0 113 1 214t2 204.5t1 238.5q10 -23 38 -86t71 -157t96 -215t114.5 -259.5t126 -288t129.5 -300.5h13q4 12 20.5 50t34.5 84t36.5 90t29.5 65q68 152 124 277.5t111 246.5t111.5 248t124.5 278v-579v-254 t-4 -258q-2 -41 -8.5 -81t-18.5 -67q-20 -43 -79.5 -75.5t-147.5 -36.5v-23h702v20q-49 2 -86 15.5t-61.5 31t-38 33t-15.5 19.5q-12 23 -17 62.5t-5 78.5q-2 121 -2 229v222v186t2 190q2 72 6 146t16 108q16 45 60.5 78t128.5 35v21h-436q-6 -16 -50.5 -120t-113 -259.5 t-154.5 -348t-176 -387.5l-490 1115h-436v-21q25 -4 59.5 -13t65.5 -29.5t53.5 -56.5t24.5 -93q2 -59 2 -101v-80v-77v-101q0 -137 -2 -257t-6 -208q-2 -104 -14.5 -177t-39 -122t-71.5 -76.5t-117 -42.5v-20z" />
<glyph unicode="N" horiz-adv-x="1792" d="M68 0h503v20q-84 10 -132 34t-70 71q-20 41 -25.5 125t-5.5 188v865q139 -156 264 -301.5t255 -298t273.5 -320.5t317.5 -369q20 -20 37 -20q10 0 15 5t5 13v133t-1 149t-1 146v131q0 137 3 257t7 208q4 94 8.5 177t18.5 114q25 59 71 88t122 39v21h-508v-21 q98 -14 150 -50t73 -93q16 -43 18 -118t2 -157v-696l-970 1135h-416v-21q33 -4 68.5 -13t66.5 -30.5t53.5 -59.5t28.5 -98q2 -59 2 -100v-76v-76v-98q0 -137 -2 -257t-6 -208q-4 -117 -12.5 -200.5t-36.5 -126.5q-29 -45 -78 -64.5t-98 -26.5v-20z" />
<glyph unicode="O" horiz-adv-x="1654" d="M59 739q0 -166 60.5 -304t165 -237.5t244 -153.5t294.5 -54q158 0 298.5 55t246 157.5t166.5 242t61 303.5q0 147 -51 282t-147.5 238.5t-234.5 165t-312 61.5q-160 0 -304.5 -52t-252 -149.5t-171 -238t-63.5 -316.5zM313 733q0 133 30 263t92.5 232.5t159.5 167 t230 64.5q131 0 227.5 -64.5t161 -168t96 -230.5t31.5 -252q0 -129 -31.5 -258t-95 -232t-158.5 -169t-225 -66q-129 0 -226 59.5t-161.5 158t-97.5 227.5t-33 268z" />
<glyph unicode="P" horiz-adv-x="1343" d="M76 1454q55 -8 103 -19.5t79 -43.5q12 -12 19.5 -40t10.5 -62t4 -71.5t1 -74.5v-400v-118q0 -61 -1 -120t-2 -108t-1 -78q0 -33 -2 -67.5t-5 -65t-9.5 -55.5t-16.5 -37q-27 -33 -74 -49t-98 -25v-20h655v20q-84 4 -131 31t-63 53q-20 31 -22.5 78t-4.5 113q0 35 -1 64.5 t-1 64.5v80v112h111q63 0 129.5 5.5t132 15.5t123.5 31q55 20 108.5 54t93 81t64.5 108.5t25 137.5q0 123 -59.5 213t-149.5 139q-92 51 -196.5 64.5t-240.5 13.5h-92q-53 0 -113.5 -1t-121.5 -1t-113.5 -1t-91.5 -1h-49v-21zM516 645v90v172t1 200.5t3 174.5q2 47 4 72.5 t4 40t5.5 23.5t5.5 22q14 2 37.5 5t66.5 3q59 0 114.5 -8t104.5 -31q98 -47 158.5 -139t60.5 -211q0 -129 -69.5 -232.5t-200.5 -148.5q-63 -23 -137 -28t-158 -5z" />
<glyph unicode="Q" horiz-adv-x="1654" d="M59 739q0 -145 48.5 -268t131.5 -218t193.5 -159.5t235.5 -91.5q10 -82 45 -142.5t89 -97t123.5 -54t149.5 -17.5q98 0 176 29.5t138 70.5l-11 16q-41 -16 -75.5 -21t-71.5 -5q-51 0 -100.5 14.5t-88 42t-61.5 70.5t-23 96q135 25 252 89.5t202 161.5t134 222.5t49 270.5 q0 147 -51 282t-147.5 238.5t-234.5 165t-312 61.5q-147 0 -281.5 -45t-242.5 -137q-266 -227 -267 -574zM313 733q0 133 30 263t92.5 232.5t159.5 167t230 64.5q131 0 227.5 -64.5t161 -168t96 -230.5t31.5 -252q0 -123 -27.5 -253t-88 -236t-157.5 -175t-237 -69 q-119 0 -215 60.5t-163.5 161t-103.5 230.5t-36 269z" />
<glyph unicode="R" horiz-adv-x="1560" d="M84 0h655v20q-84 4 -131 32t-63 54q-20 31 -22.5 78t-4.5 113q-2 68 -2 166v231q29 -2 47 -2q20 0 60 -8q53 -10 101 -51t89 -88q49 -57 85 -103.5t66.5 -91.5t60.5 -91t69 -103q33 -47 48 -71t25.5 -36t18.5 -21.5t26 -27.5h420v20q-96 14 -167.5 63.5t-147.5 156.5 q-49 70 -111.5 159.5t-115.5 167.5q-31 43 -64 78t-68 53v7q68 23 129.5 55.5t107.5 78.5t73.5 106.5t27.5 135.5q0 123 -55 204t-145 128q-88 47 -194.5 55.5t-244.5 8.5h-143t-176 -1t-158 -1h-84v-21q55 -8 93 -19.5t69 -43.5q12 -12 19.5 -40t10.5 -62t4 -71.5t1 -74.5 v-400v-118q0 -61 -1 -120t-2 -108t-1 -78q0 -33 -2 -67.5t-5 -65t-9.5 -55.5t-16.5 -37q-27 -33 -74 -49t-98 -25v-20zM516 721v78v147t1 174t3 162q2 47 3 72.5t2 40t3 23.5t4 22q14 2 41 4t70 2q59 0 113.5 -10.5t103.5 -32.5q98 -47 149.5 -127t51.5 -182 q0 -55 -14.5 -106.5t-44 -95.5t-76.5 -79t-113 -55q-68 -23 -140.5 -30t-156.5 -7z" />
<glyph unicode="S" horiz-adv-x="1239" d="M129 410l6 -408h19q16 23 36.5 47.5t26.5 24.5t29.5 -14.5t71 -32t119 -29.5t171.5 -12q117 0 215.5 26.5t169 82t110.5 133t40 175.5q0 145 -77 242.5t-216 149.5q-39 14 -75 26.5t-70.5 23.5t-70.5 23.5t-77 28.5q-104 39 -169.5 104.5t-65.5 174.5q0 70 23.5 124 t65.5 90.5t98 55t120 18.5q80 0 145.5 -32.5t116.5 -85t90 -119t63 -133.5h23v379h-23q-16 -25 -35.5 -49.5t-25.5 -24.5q-2 0 -23.5 15.5t-63.5 33.5t-107.5 33.5t-157.5 15.5q-98 0 -187.5 -25.5t-157 -79t-107.5 -133t-40 -190.5q0 -66 22.5 -124t59.5 -106t86 -84 t103 -57q47 -18 80.5 -29.5t65.5 -22.5t69 -23.5t86 -31t92 -41t74.5 -54t50 -74.5t18.5 -100q0 -141 -94 -224.5t-246 -83.5q-53 0 -110.5 18.5t-92 37t-72.5 53.5t-72 81t-62.5 98t-46.5 108h-21z" />
<glyph unicode="T" horiz-adv-x="1509" d="M-20 1096l18 -6q12 37 33.5 75.5t45 72.5t45 62.5t38.5 42.5q43 41 93 57.5t128 18.5q39 0 68.5 1t56.5 1h59h76v-678v-116t-1 -118.5t-2 -105t-1 -75.5q0 -33 -1 -68t-4 -64.5t-8.5 -53t-15.5 -33.5q-47 -53 -96 -67.5t-102 -21.5v-20h665v20q-45 8 -101 24.5t-87 61.5 q-16 23 -19.5 77.5t-3.5 113.5v455v155v191q0 96 1 184t1 139h76h59q29 0 57.5 -1t67.5 -1q78 -2 128.5 -15t93.5 -54q16 -14 38.5 -44t46 -65t46 -75t39.5 -76l18 6l-66 399q-47 -14 -91 -23.5t-111 -11.5q-78 0 -139.5 -1t-119 -2t-118.5 -1h-135h-138h-116t-118.5 1 t-139.5 3q-76 2 -116 8.5t-87 16.5z" />
<glyph unicode="U" horiz-adv-x="1708" d="M72 1454q53 -6 95 -21.5t71 -50.5q12 -14 18 -39.5t9 -57.5t3 -68v-74v-273q0 -113 -1 -205t-1 -149q0 -25 3 -75t20.5 -110.5t53.5 -123t101.5 -114.5t167 -82.5t248.5 -30.5q150 0 252 31.5t168 86t101.5 121t52 133t19.5 126t5 97.5q4 137 7 246t5 197q0 47 2 95 t6.5 91t9.5 76t11 47q25 59 69 88t120 39v21h-508v-21q98 -14 148 -50t71 -93q8 -20 12 -54t6 -73t3 -82t1 -84v-84v-80v-84v-100q0 -70 -5 -142.5t-20.5 -142.5t-47 -131t-86 -108.5t-135 -74t-197.5 -26.5q-102 0 -182 34t-135.5 96.5t-86 151.5t-32.5 197q0 49 -1 93.5 t-1 91.5v104v125v96v82t1 80t3 94q2 47 20.5 78t45 48.5t59 25.5t61.5 12v21h-610v-21z" />
<glyph unicode="V" horiz-adv-x="1366" d="M-61 1452q47 -2 77.5 -15.5t52 -32t34 -36.5t18.5 -31q12 -25 23.5 -47t22.5 -46.5t23.5 -53.5t26.5 -68q51 -131 102.5 -261t106.5 -269t113.5 -289.5t126.5 -316.5h24l101 204l95 247t101 259t100.5 251t90.5 220q25 59 44 98.5t33.5 65t25.5 38.5t17 20q6 8 46.5 32.5 t93.5 30.5v23h-477v-21q27 -2 60.5 -9t64 -20.5t51 -34t20.5 -51.5q0 -23 -12 -81t-53 -171q-55 -147 -106.5 -282t-93.5 -241.5t-69.5 -178.5t-38.5 -94q-23 61 -61.5 157.5t-82.5 208t-89 227t-81 213t-58.5 166t-22.5 87.5q0 31 21.5 51t49 31.5t54.5 15.5t37 6v21h-612 v-23z" />
<glyph unicode="W" horiz-adv-x="2029" d="M-57 1452q45 -2 73.5 -15.5t49 -30.5t32 -35.5t17.5 -31.5q12 -25 22 -47t19.5 -46.5t20.5 -53.5t26 -68q49 -129 98 -259t101.5 -268t108.5 -287.5t120 -315.5h24l90 201q35 96 72 199.5t74 210t73.5 210t69.5 197.5q43 -115 84 -232.5t85 -242.5t92 -260.5t104 -282.5 h20l86 196q39 117 84 247t89 259t87 251t76 222q20 59 38.5 99.5t35 66t29 40t18.5 20.5q6 8 42 30.5t87 28.5v21h-451v-21q25 -2 55.5 -9t57.5 -20.5t45.5 -33t18.5 -50.5q0 -20 -4.5 -63t-32.5 -137q-23 -74 -50.5 -159l-55 -170t-55.5 -167t-51.5 -148.5t-39 -112.5 t-21.5 -60q-14 39 -45.5 126t-70.5 196.5t-82 228t-78 220t-57.5 172t-22.5 83.5q0 31 25.5 51t57.5 31.5t63.5 15.5t43.5 6v21h-641v-23q49 -2 84 -13.5t58.5 -28.5t37 -35.5t21.5 -35.5q29 -59 53.5 -121.5t55.5 -144.5q-45 -141 -90.5 -271t-82 -233.5t-61 -172 t-31.5 -85.5q-23 61 -59.5 156.5t-78.5 205t-84 222.5t-76.5 208t-56 161.5t-21.5 85.5q0 35 19.5 55t46 30.5t51 14.5t34.5 4v21h-577v-23z" />
<glyph unicode="X" horiz-adv-x="1449" d="M-35 0h543v20q-29 4 -61.5 12.5t-61.5 23t-47.5 36t-18.5 49.5q0 37 23 78t51 82q25 35 60.5 80t74.5 93t78 95t72 86q78 -109 138.5 -195.5t107.5 -160.5q35 -53 61.5 -101t26.5 -77t-18.5 -47.5t-47 -28.5t-61.5 -15t-62 -10v-20h664v20q-43 6 -78 28t-67.5 55.5 t-66.5 80.5t-75 107q-14 23 -45 65.5t-68.5 96t-78.5 112t-76 109.5t-61.5 88t-34.5 49q31 37 69.5 85t81.5 99.5t85 102.5t77 92q90 109 170 175t184 89v21h-534v-21q27 -4 59.5 -12t60 -22.5t47 -35t19.5 -49.5q0 -33 -28.5 -82t-53.5 -82q-53 -68 -123.5 -159.5 t-138.5 -169.5q-76 109 -129 185.5t-104 150.5q-37 53 -66 100t-29 76t20.5 47t49.5 28.5t63.5 16.5t61.5 8v21h-668v-21q47 -14 83 -35.5t68 -53.5t65.5 -77t76.5 -104q33 -45 87 -122t109.5 -155t99.5 -140t56 -79q-31 -37 -75.5 -92t-94 -113.5t-94.5 -113t-76 -88.5 q-92 -104 -180 -171t-170 -90v-20z" />
<glyph unicode="Y" horiz-adv-x="1329" d="M-51 1454q41 -2 72.5 -22.5t64.5 -55.5t64.5 -84t70.5 -108q20 -31 51 -80t66 -105.5t70.5 -116t65.5 -107.5t50.5 -80.5t24.5 -39.5q0 -113 -1 -191.5t-3 -135.5q0 -33 -1 -68t-4 -65.5t-8.5 -55t-15.5 -35.5q-45 -51 -85 -64t-93 -20v-20h631v20q-45 8 -94.5 22.5 t-79.5 59.5q-16 23 -19.5 79.5t-3.5 115.5v412q25 37 68 102.5t89 137t90 138t68 105.5q37 57 69 102t66.5 78t76 53.5t98.5 28.5v21h-473v-21q29 -4 59.5 -9t56 -15.5t42 -29t16.5 -50.5q0 -20 -8.5 -45t-19.5 -48.5t-23.5 -45t-22.5 -37.5q-18 -33 -54 -90.5t-76 -120 t-79 -123t-65 -99.5q-33 55 -71 117t-75 120t-67.5 110.5t-53.5 89.5q-33 55 -62.5 109t-29.5 81t16.5 42t43 24.5t57.5 13.5t61 6v21h-620v-21z" />
<glyph unicode="Z" horiz-adv-x="1421" d="M29 1040l22 -8q23 37 56.5 81t70.5 87t73 79t60 56q51 41 113.5 68t140.5 31q39 2 105.5 3t140.5 1h143h115l-1036 -1424l8 -14h1235l147 461l-22 8q-102 -176 -234.5 -291t-298.5 -133q-59 -6 -113.5 -8t-88.5 -2h-166q-82 0 -185 2l1035 1421l-7 12h-184h-227h-244 q-121 0 -225.5 1.5t-180 2.5t-104.5 3z" />
<glyph unicode="[" horiz-adv-x="585" d="M100 -217h465v49h-407v1593h407v50h-465v-1692z" />
<glyph unicode="\" horiz-adv-x="636" d="M-84 1530l758 -1823l67 25l-757 1824z" />
<glyph unicode="]" horiz-adv-x="585" d="M20 -168v-49h465v1692h-465v-50h408v-1593h-408z" />
<glyph unicode="^" horiz-adv-x="520" d="M47 1081l25 -14l176 229l174 -231l24 14l-182 351h-31z" />
<glyph unicode="_" d="M0 -197v-69h1024v69h-1024z" />
<glyph unicode="`" d="M324 1366l280 -313l21 12l-207 360q-45 0 -63.5 -16t-30.5 -33v-10z" />
<glyph unicode="a" horiz-adv-x="917" d="M63 702q0 -31 24 -54t56 -23q35 0 65 22.5t30 50.5v93q0 12 14 29.5t38.5 34.5t56.5 28.5t65 11.5q49 0 79.5 -13.5t48 -29.5t24.5 -31.5t7 -19.5v-211q-20 -12 -49.5 -27.5t-68.5 -37t-91.5 -52.5t-120 -74t-113.5 -96t-46 -110q0 -53 17.5 -90t45 -61t61.5 -33t66 -9 q55 0 101.5 17.5t84.5 46t65.5 61.5t43.5 59l4 -2q0 -102 54.5 -143t124.5 -41q43 0 78.5 15.5t62.5 45t43 66.5t18 76h-12q-8 -31 -30.5 -50.5t-69.5 -19.5q-41 0 -73 29.5t-32 122.5q0 70 1 128t1 113t1 114.5t1 133.5q0 35 -2 71t-10 50q-20 41 -67.5 68.5t-100.5 27.5 q-27 0 -68.5 -12t-92 -32.5t-105.5 -49.5t-109 -59q-16 -10 -37.5 -22.5t-40 -29t-31 -37t-12.5 -45.5zM244 264q0 53 37.5 95t90 77t108 64.5t91.5 56.5v-315q0 -35 -24 -58q-35 -35 -76 -47t-94 -12q-59 0 -96 43t-37 96z" />
<glyph unicode="b" horiz-adv-x="1101" d="M14 1350q35 -18 68 -37t51 -31v-1276h14l50 111h10q66 -55 162 -87t213 -32q104 0 192 38t152.5 105.5t100.5 159t36 195.5q0 96 -26.5 185t-78 157.5t-125 109.5t-169.5 41q-57 0 -114.5 -20.5t-106 -54t-85 -74.5t-55.5 -84l-4 2l6 729h-16l-275 -125v-12zM301 473v82 v74q0 47 2 71q0 12 15.5 39t45 53.5t75.5 47t110 20.5q84 0 145.5 -32.5t101.5 -87t59 -125t19 -148.5q0 -94 -20 -175t-58 -140.5t-90.5 -92t-117.5 -32.5q-76 0 -129 31.5t-87 84t-50.5 119t-18.5 133.5q-2 39 -2 78z" />
<glyph unicode="c" horiz-adv-x="884" d="M41 496q0 -104 34 -196.5t93 -161t143 -106.5t183 -38q78 0 144.5 22.5t119.5 64.5t90 96.5t55 115.5l-16 8q-49 -82 -123 -124t-201 -42q-80 0 -144.5 30t-109.5 84t-69.5 131t-24.5 169q0 84 22.5 157.5t61.5 129t92 88t117 32.5q86 0 126 -50t40 -126q0 -41 -10 -69 q8 -31 35.5 -51.5t62.5 -20.5q43 0 74.5 31.5t31.5 74.5q0 59 -31.5 104.5t-83 76t-117 47t-132.5 16.5q-100 0 -185.5 -41t-146.5 -108.5t-96 -156.5t-35 -187z" />
<glyph unicode="d" horiz-adv-x="1118" d="M39 483q0 -119 32.5 -210t88 -153.5t126 -92t146.5 -29.5q121 0 202 49t140 152h2v-205h12l304 86v14q-39 16 -84 34.5t-62 29.5v1329h-16l-326 -90v-13l168 -63v-72v-102t1 -108.5t3 -84.5q-45 14 -99 24.5t-116 10.5q-117 0 -213 -39t-164.5 -107.5t-106.5 -160.5 t-38 -199zM229 510q0 84 17.5 164t54.5 141.5t93.5 98t135.5 36.5q59 0 129 -51t115 -135v-488q-16 -88 -76.5 -145t-144.5 -57q-80 0 -140.5 36.5t-101.5 97t-61.5 139.5t-20.5 163z" />
<glyph unicode="e" horiz-adv-x="890" d="M39 514q0 -106 32.5 -201.5t93 -166t146.5 -109.5t191 -39q84 0 152.5 30.5t117.5 78t78 103.5t37 101l-17 4q-25 -76 -101.5 -128t-178.5 -52q-94 0 -166 35t-119 95.5t-71.5 139t-24.5 164.5q0 23 2 44.5t2 37.5h657q-6 86 -38.5 149.5t-85 105.5t-123 62.5 t-150.5 20.5q-98 0 -179 -42t-137.5 -109.5t-87 -152.5t-30.5 -171zM217 680q4 25 22.5 71t52.5 91t80 78.5t103 33.5q88 0 140.5 -54t52.5 -130q0 -29 -7.5 -43t-21.5 -31q-20 -8 -47 -10t-57 -2q-47 0 -86 -1t-75 -2t-73 -1h-84z" />
<glyph unicode="f" horiz-adv-x="552" d="M0 0h520v20q-31 4 -60.5 6.5t-54 8.5t-41 16t-20.5 29v799h217l27 90h-242q0 74 1 132t5 140q4 63 21.5 101t41 57.5t46 26t35.5 6.5q25 -8 44 -33t40.5 -50.5t47 -45t62.5 -19.5q39 0 62.5 30.5t23.5 67.5q0 29 -15.5 48.5t-39 32t-53 18.5t-60.5 6q-66 0 -128 -17.5 t-114.5 -47t-93.5 -69.5t-63 -87q-23 -45 -28 -128t-5 -169h-127l-22 -90h147v-793q0 -16 -18.5 -27.5t-46 -18.5t-57 -12t-52.5 -8v-20z" />
<glyph unicode="g" horiz-adv-x="1075" d="M29 -262q0 -117 123.5 -183.5t347.5 -66.5q117 0 214 31.5t168.5 87t111.5 128t40 152.5q0 61 -21.5 111.5t-62.5 89.5t-98 61.5t-129 22.5h-328q-35 0 -71.5 4t-67.5 16.5t-51.5 34t-20.5 54.5q0 41 39 67.5t105 30.5q41 0 70.5 -4t58.5 -4q199 0 311.5 80.5 t112.5 242.5q0 66 -21.5 107t-52.5 88l8 8q25 -14 55.5 -31.5t60.5 -32t54.5 -24.5t36.5 -10q31 0 52.5 23.5t21.5 54.5q0 35 -22.5 59.5t-57.5 24.5q-25 0 -43.5 -7.5t-34.5 -16.5t-35.5 -16.5t-44.5 -7.5t-42 2.5t-42 10.5q-66 35 -126 49t-138 14q-86 0 -158.5 -24.5 t-126 -66.5t-83 -99.5t-29.5 -122.5q0 -104 50 -172t140 -103v-6q-51 -6 -95 -25.5t-77 -48t-51.5 -63.5t-18.5 -74q0 -78 56.5 -125t161.5 -59v-4q-43 -27 -87.5 -54.5t-80 -59.5t-59 -66.5t-23.5 -77.5zM182 -201q0 63 37 116.5t133 78.5q29 4 74 8t88 4q119 0 186.5 -9 t112.5 -32q35 -16 59.5 -59.5t24.5 -102.5q0 -88 -54.5 -151.5t-125.5 -91.5q-35 -12 -79 -18.5t-106 -6.5q-51 0 -111.5 16.5t-113.5 50t-89 83t-36 114.5zM276 674q0 53 14.5 104t42 91t68.5 63.5t93 23.5q55 0 97 -21.5t69.5 -57t42 -83t14.5 -100.5q0 -57 -14.5 -109.5 t-43 -93t-70.5 -65.5t-97 -25q-90 0 -153 75t-63 198z" />
<glyph unicode="h" horiz-adv-x="1073" d="M51 0h408v20q-20 4 -41 6.5t-37 7.5t-26.5 15t-10.5 29v629q0 16 7 35.5t11 25.5q31 45 82.5 71.5t124.5 26.5q57 0 94 -20.5t58.5 -57t30 -88t8.5 -110.5v-512q0 -33 -37 -42t-92 -13v-23h422v18q-18 2 -39 5.5t-39.5 8.5t-30.5 15t-12 25v604q0 68 -11.5 125t-39 99 t-73.5 65.5t-114 23.5q-70 0 -128 -23.5t-103 -56t-75 -69.5t-44 -66l-4 2l6 711h-16l-275 -125v-12q27 -16 54.5 -29.5t44.5 -28.5q14 -10 17 -18t3 -25v-1163q0 -39 -38 -50t-85 -16v-20z" />
<glyph unicode="i" horiz-adv-x="520" d="M37 0h440v20q-20 4 -41.5 5.5t-40 5.5t-32 13t-17.5 30v915h-12l-277 -90v-12q29 -10 54.5 -22.5t44.5 -24.5q14 -10 17 -22.5t3 -29.5v-702q0 -18 -13 -30.5t-32.5 -19.5t-44.5 -10t-49 -6v-20zM141 1313q0 -45 33 -78t78 -33q47 0 78.5 32t31.5 79t-31.5 77.5 t-78.5 30.5t-79 -30.5t-32 -77.5z" />
<glyph unicode="j" horiz-adv-x="503" d="M-209 -367q0 -31 15.5 -54t40 -39.5t55 -25t61.5 -8.5q68 0 138.5 38t126 93.5t90 120t34.5 117.5v127v205q0 117 -1 241.5t-1 235.5v195v110h-12l-287 -110v-15q25 -14 58.5 -32.5t50.5 -32.5q14 -12 17 -19.5t3 -23.5v-666q0 -39 -1 -114.5t-5 -155.5q-2 -39 -4 -81 t-13.5 -79t-33 -63.5t-60.5 -34.5q-35 2 -49 28.5t-25.5 58.5t-31.5 57.5t-63 25.5q-51 0 -77 -27t-26 -72zM145 1309q0 -45 33 -78t78 -33q47 0 79 32t32 79t-32 77.5t-79 30.5t-79 -30.5t-32 -77.5z" />
<glyph unicode="k" horiz-adv-x="999" d="M51 0h408v20q-20 4 -41 6.5t-37 7.5t-26.5 15t-10.5 29v401q8 4 15.5 5t17.5 1q27 0 59 -45q31 -41 73 -101t80 -117.5t65.5 -101.5t27.5 -57q0 -29 -27.5 -34.5t-68.5 -8.5v-20h495v20q-39 0 -73.5 4.5t-51.5 8.5q-49 37 -120 131q-59 78 -139.5 197.5t-170.5 256.5 q55 51 119 109.5t129 114.5q43 37 93.5 57.5t94.5 31.5t76.5 14t38.5 3v21h-502v-21q25 0 53.5 -4t53.5 -10t41 -15.5t16 -23.5t-38.5 -58t-98 -102.5t-129.5 -121t-129 -111.5v979h-16l-273 -125v-13q27 -14 56.5 -29.5t44 -25.5t16.5 -19t2 -26v-1157q0 -39 -38 -50 t-85 -16v-20z" />
<glyph unicode="l" horiz-adv-x="503" d="M14 0h478v23q-39 4 -68 5t-47.5 5t-27.5 14t-9 31v1403h-14l-293 -97v-12q25 -10 61.5 -31.5t55.5 -31.5q14 -10 17 -18.5t3 -24.5v-1178q0 -33 -30.5 -46t-125.5 -19v-23z" />
<glyph unicode="m" horiz-adv-x="1626" d="M59 0h398v20q-20 4 -39 5.5t-34 5.5t-25.5 13t-14.5 30v671q53 57 96 86t111 29q106 0 148 -68.5t42 -189.5v-524q0 -33 -32.5 -42t-87.5 -13v-23h403v18q-18 2 -37.5 5.5t-36 8.5t-27 15t-10.5 25v661q49 55 94.5 91t112.5 36q106 0 148.5 -70.5t42.5 -189.5v-522 q0 -33 -29 -42t-84 -13v-23h404v18q-18 2 -39 5.5t-38.5 8.5t-29.5 15t-12 25v610q0 135 -60.5 221t-179.5 86q-55 0 -107.5 -22.5t-95.5 -58.5t-75.5 -78t-51.5 -78h-6q-14 109 -74.5 173t-158.5 64q-55 0 -105.5 -21.5t-93.5 -53t-75.5 -71.5t-53.5 -77l-4 2v221h-12 l-269 -96v-16q25 -10 49.5 -23.5t43.5 -24.5q14 -10 17 -18t3 -25v-700q0 -33 -34 -47t-81 -19v-20z" />
<glyph unicode="n" horiz-adv-x="1067" d="M57 0h396v20q-20 4 -39 5.5t-33 5.5t-24.5 13t-14.5 30v671q55 55 100 84t113 29q106 0 151.5 -72.5t45.5 -191.5v-516q0 -33 -33 -42t-88 -13v-23h418v18q-18 2 -40 5.5t-40.5 8.5t-31.5 15t-13 25v602q0 139 -63.5 227t-182.5 88q-55 0 -106.5 -21.5t-94.5 -54 t-76.5 -72.5t-56.5 -75l-4 2v221h-12l-269 -96v-12q25 -10 49.5 -23.5t43.5 -23.5q14 -10 17 -18.5t3 -24.5v-705q0 -33 -34 -47t-81 -19v-20z" />
<glyph unicode="o" horiz-adv-x="1046" d="M39 502q0 -131 46 -228.5t118.5 -160t159 -91t165.5 -28.5q96 0 183.5 39t153 108.5t104.5 163t39 197.5q0 123 -44 214t-113 151.5t-153 91t-166 30.5q-111 0 -201.5 -41t-155 -108.5t-100.5 -155.5t-36 -182zM229 489q0 86 19.5 169t57.5 149.5t91.5 107.5t120.5 41 q84 0 141.5 -44t92 -111.5t50 -147t15.5 -149.5q0 -72 -15.5 -156t-49 -156.5t-88 -120.5t-134.5 -48t-137 37.5t-94 102t-53.5 148.5t-16.5 178z" />
<glyph unicode="p" horiz-adv-x="1093" d="M0 -449v-22h504v22q-20 2 -48 4.5t-53.5 7.5t-44 14t-22.5 28v96t-1 120.5t-2 117t-1 84.5q39 -8 74.5 -10.5t72.5 -2.5q133 0 239.5 40t180.5 110.5t114 169t40 213.5q0 82 -22.5 161.5t-69 143t-117 102.5t-166.5 39q-59 0 -109.5 -22.5t-93.5 -56t-78 -74.5t-63 -80 l-2 4v229h-13l-301 -119v-12q25 -10 66 -29.5t59 -29.5q14 -10 17.5 -18.5t3.5 -24.5v-1135q0 -16 -17.5 -28.5t-43 -20.5t-54.5 -13t-49 -8zM332 401v131q0 35 1 81t1 87q0 12 15.5 39t45 52.5t71.5 45t95 19.5q78 0 136.5 -29.5t96 -80t56 -118t18.5 -145.5 q0 -94 -25.5 -174t-68.5 -137t-98 -90t-115 -33q-68 0 -110.5 23.5t-67.5 61.5t-35 84t-14 89q-2 47 -2 94z" />
<glyph unicode="q" horiz-adv-x="1122" d="M39 487q0 -96 28.5 -185t81 -156.5t126 -106.5t165.5 -39q68 0 125.5 19.5t102.5 52t77.5 73.5t49.5 82l4 -2q0 -20 -1 -68t-2 -106.5t-1 -126.5t-1 -130t-1 -111v-76q-4 -16 -23.5 -26.5t-45.5 -15.5t-54.5 -8t-48.5 -6v-22h491v22q-25 2 -50.5 7.5t-47 13.5t-35.5 20.5 t-14 28.5v1368h-15l-63 -112h-6q-53 47 -146.5 79.5t-212.5 32.5q-106 0 -195 -41t-152.5 -109.5t-99.5 -159.5t-36 -192zM225 516q0 96 21.5 176t59.5 139.5t92.5 92t117.5 32.5q78 0 130 -31.5t84 -84t47.5 -119t17.5 -133.5q2 -35 2 -72v-70v-90q0 -42 -2 -73 q0 -12 -15.5 -39t-44 -53.5t-75 -47t-107.5 -20.5q-82 0 -143.5 32.5t-102.5 87t-61.5 126t-20.5 147.5z" />
<glyph unicode="r" horiz-adv-x="731" d="M59 0h459v20q-20 4 -48 5.5t-53.5 5.5t-46 14t-26.5 29v590q12 31 28.5 64.5t37 60t44 44t48.5 17.5q29 0 45 -11.5t30.5 -25.5t34 -25.5t52.5 -11.5q35 0 61.5 30t26.5 75q0 47 -36 77.5t-87 30.5q-63 0 -112.5 -34.5t-84.5 -83t-57.5 -95.5t-32.5 -71h-4l4 284h-12 l-269 -104v-13q25 -10 49.5 -25.5t43.5 -25.5q14 -10 17 -18t3 -25v-692q0 -33 -34 -47t-81 -19v-20z" />
<glyph unicode="s" horiz-adv-x="782" d="M55 59q68 -31 148 -47t170 -16q76 0 144.5 16.5t121.5 53t85 95t32 138.5q0 104 -64.5 176t-156.5 94q-39 10 -92.5 21.5t-98.5 21.5q-66 16 -108.5 49t-42.5 109q0 47 16 83t41.5 59.5t59.5 36t69 12.5q57 0 101 -20.5t79 -58.5t63.5 -90.5t57.5 -113.5l16 4l-24 254 q-59 23 -125 38t-152 15q-68 0 -127 -19.5t-104 -56t-71.5 -88t-26.5 -114.5q0 -92 48 -158t126 -92q41 -14 92 -26.5t106 -22.5q70 -14 110 -56.5t40 -105.5q0 -117 -58.5 -173.5t-156.5 -56.5q-68 0 -117 30t-84 76t-59.5 100.5t-40.5 103.5h-17v-271z" />
<glyph unicode="t" horiz-adv-x="663" d="M27 844h149q0 -135 -2 -308.5t-2 -365.5q0 -33 19.5 -64.5t50 -57t70.5 -39t83 -13.5q66 0 114 15.5t84 43t57.5 61.5t33.5 64l-12 6q-29 -41 -68 -60.5t-98 -19.5q-72 0 -117 47.5t-45 151.5v539h311l64 125h-379v178h-16l-297 -281v-22z" />
<glyph unicode="u" horiz-adv-x="1071" d="M0 946q18 -2 38.5 -3t39 -5t34 -12t23.5 -27q4 -6 5 -19.5t3 -28.5t2 -30v-22v-500q0 -150 62.5 -227.5t193.5 -77.5q57 0 107.5 18.5t91.5 50t74 70.5t55 74l2 -2v-207h14l291 53v12q-25 10 -60.5 26.5t-53.5 27.5q-14 10 -17.5 18t-3.5 25v809h-344v-23q45 -4 87 -10 t67 -16q12 -16 16 -48t4 -53v-583q-18 -25 -39.5 -47.5t-47.5 -40t-57.5 -28.5t-74.5 -11q-113 0 -154 64.5t-41 199.5v596h-317v-23z" />
<glyph unicode="v" horiz-adv-x="907" d="M-68 946q68 -4 93.5 -19.5t37.5 -27.5q10 -18 22.5 -47t25 -59.5t23.5 -58t18 -44.5q43 -113 77.5 -203t65.5 -168.5t59.5 -153.5t61.5 -159q2 -4 6 -9t12 -5q14 0 21 12q12 27 21 47.5t19.5 43t21.5 48t28 62.5q29 72 62.5 158t68.5 172t66.5 163.5t56.5 135.5 q16 37 42.5 59t57.5 33.5t61 15.5t50 4v23h-398v-21q18 -2 43 -2t47.5 -6t38 -21.5t15.5 -44.5q0 -18 -25.5 -93.5t-62.5 -176t-78 -205t-72 -180.5q-18 49 -45 114.5t-54.5 135.5t-54 139.5t-48 127t-35 96t-13.5 49.5q0 23 17.5 34t42 17t52.5 9t46 5v23h-494v-23z" />
<glyph unicode="w" horiz-adv-x="1513" d="M-66 946q68 -2 91.5 -17.5t35.5 -25.5q16 -27 32 -60.5t28 -62.5q86 -207 161.5 -391t155.5 -379q8 -14 19 -14q12 0 20 12q20 45 34.5 84t43.5 94l195 508q41 -119 71.5 -211t57 -169.5t51 -150.5t51.5 -153q2 -6 5 -10t13 -4t19 12q12 25 21.5 45.5t19.5 42t22.5 49 t30.5 66.5q29 72 64.5 155t71.5 166.5t70 160.5t58 134q18 43 42 67t48.5 35t50 13t50.5 4v23h-375v-23q18 -2 40.5 -4t42 -9t33 -22.5t13.5 -44.5q0 -18 -14.5 -65t-36 -107.5t-49 -129t-53 -133t-48 -117t-35.5 -78.5q-18 49 -41.5 113.5t-48 132t-48 135t-42 123t-30 93 t-11.5 48.5q0 23 17.5 34t41 17t48 9t41.5 5v23h-467v-23q37 -2 57.5 -7t31.5 -12t16 -14.5t12 -13.5q20 -37 36.5 -75t30.5 -79q-27 -74 -54.5 -149.5t-54 -145t-49 -127t-39.5 -98.5q-39 94 -86 207t-88 213t-68.5 173t-31.5 89q10 10 27.5 16.5t37 11.5t39 7t33.5 4v23 h-461v-23z" />
<glyph unicode="x" horiz-adv-x="937" d="M-16 0h399v23q-53 2 -82 13t-43 56q0 18 19.5 56t49 82t62.5 90.5t57 82.5q25 -45 50.5 -90t47 -87t37 -76.5t17.5 -61.5q-4 -27 -16.5 -40t-26.5 -18t-28.5 -6t-24.5 -1v-23h477v23q-37 2 -62.5 5t-50 19t-51.5 51t-63 99q-29 49 -53.5 90t-48 78.5t-46 79.5t-49.5 96 q25 35 43 60.5t36.5 50t40 53t52.5 67.5q55 70 91 104.5t62.5 49t51 16.5t57.5 4v23h-391v-23q57 -4 88 -17.5t37 -56.5q0 -16 -18.5 -51t-44 -78t-57.5 -90t-60 -90q-33 53 -61.5 107.5t-52 99.5t-37 77t-15.5 44q8 18 22.5 29.5t29.5 16.5t29.5 7t22.5 2v23h-489v-23 q39 -6 79 -13t79 -36q14 -16 31.5 -41t31.5 -47q33 -55 58.5 -100t51 -89.5t51 -89.5t58.5 -100q-33 -47 -81 -113.5t-107 -138.5q-51 -63 -89 -95t-67 -45t-54.5 -14t-49.5 -1v-23z" />
<glyph unicode="y" horiz-adv-x="851" d="M-70 946q70 -4 95.5 -16t44.5 -33q31 -84 67.5 -184.5t74.5 -203.5t75 -201.5t65.5 -177.5t47 -129t22.5 -58q-2 -10 -10.5 -41t-21.5 -75t-30.5 -98.5t-40.5 -109.5h-4q-29 27 -56.5 51.5t-68.5 24.5t-65.5 -26.5t-24.5 -67.5t35 -67t76 -26q47 0 92 35t70 113 q35 109 72.5 229.5t75.5 243.5t75 239.5t67.5 214t53 169t33 104.5t27 50.5t38 25.5t44.5 10t48 4v23h-315v-23q18 -2 38.5 -4t38 -8t28 -17.5t10.5 -29.5q0 -12 -13.5 -62.5t-34 -121t-45 -150.5t-47 -152.5t-39 -126t-22.5 -69.5q-18 49 -43 115.5t-50.5 138t-51 142.5 t-46 130.5t-33 99t-12.5 50.5q0 39 32 49t75 16v23h-447v-23z" />
<glyph unicode="z" horiz-adv-x="886" d="M35 717l20 -4q20 59 39 100t48.5 66.5t75.5 37t120 11.5h276l-571 -912l6 -14h170q76 0 148.5 1t150.5 1h178h49q25 0 46.5 -2t38 -2t20.5 -6h18l27 311l-21 2q-16 -51 -36.5 -100t-54 -86t-87 -59.5t-135.5 -22.5h-309l577 909l-2 19q-86 0 -156.5 -1t-140.5 -1h-145 h-174q-37 0 -59.5 3t-35 9t-17.5 12t-9 12l-18 -2z" />
<glyph unicode="{" horiz-adv-x="585" d="M80 604q41 0 87 -15.5t84 -46t63.5 -74.5t25.5 -99q0 -68 -32 -111t-68.5 -81t-68.5 -83t-32 -110q0 -45 25.5 -87t62.5 -74t76 -50.5t66 -18.5q18 0 30.5 10.5t12.5 26.5q0 20 -11 41h-69q-35 0 -65.5 9t-50 34t-19.5 74q0 59 34.5 102t76.5 86t77 95.5t35 134.5 q0 47 -19.5 88t-52.5 72.5t-77 53t-93 33.5v4q102 27 172 89.5t70 158.5q0 82 -35 134.5t-77 95.5t-76.5 86t-34.5 106q0 51 21.5 76t52 34t66.5 8t64 -1q10 20 11 41q0 16 -12.5 26.5t-30.5 10.5q-27 0 -67 -18.5t-77 -50.5t-63.5 -74t-26.5 -87q0 -70 32 -113.5 t70.5 -82.5t70.5 -82t32 -111q0 -57 -25.5 -102t-63.5 -74t-84 -44t-87 -15v-25z" />
<glyph unicode="|" horiz-adv-x="503" d="M170 -43h164v1640h-164v-1640z" />
<glyph unicode="}" horiz-adv-x="585" d="M166 367q0 -82 35 -134.5t76.5 -95.5t76.5 -86t35 -102q0 -49 -19.5 -74t-50 -34t-67.5 -9h-68q-10 -20 -10 -41q0 -16 12.5 -26.5t30.5 -10.5q27 0 66 18.5t75.5 50.5t62 74t25.5 87q0 66 -31.5 110.5t-68.5 82.5t-68.5 81t-31.5 111q0 55 25.5 99t63.5 74.5t84 46 t87 15.5v25q-41 0 -87 15t-84 44t-63.5 74t-25.5 102q0 68 31.5 111t70.5 82t71 83t32 113q0 45 -27 87t-63.5 74t-76.5 50.5t-67 18.5q-18 0 -30.5 -10.5t-12.5 -26.5q0 -20 10 -41h66q37 0 67.5 -9.5t51 -34t20.5 -73.5q0 -63 -35 -106t-76.5 -86t-76.5 -95.5t-35 -134.5 q0 -96 69.5 -158.5t172.5 -89.5v-4q-49 -12 -93.5 -33.5t-77 -53t-52 -72.5t-19.5 -88z" />
<glyph unicode="~" horiz-adv-x="1069" d="M252 1096h27q14 37 26 55t30.5 27.5t45.5 10.5t65 1l187 -39q57 0 96 17.5t65.5 47t43 67.5t26.5 79h-28q-14 -70 -57.5 -87.5t-119.5 -17.5l-182 39q-96 0 -149.5 -56t-75.5 -144z" />
<glyph unicode="&#xa1;" horiz-adv-x="620" d="M172 307q0 -47 12.5 -100t30.5 -99.5t41 -77t43 -30.5q23 0 46.5 30.5t42 77t30.5 99.5t12 100q-4 10 -20.5 53t-37 132.5t-39 229.5t-24.5 345h-24q-6 -201 -22.5 -340t-35 -228t-34 -134.5t-21.5 -57.5zM178 1374q0 -53 34 -91t87 -38t88 36t35 89t-35 87t-88 34 t-87 -32t-34 -85z" />
<glyph unicode="&#xa2;" horiz-adv-x="1077" d="M123 496q0 -174 85 -298t226 -171l-74 -277l39 -8l70 274q53 -12 109 -12q80 0 146.5 25.5t118.5 67.5t88 96.5t54 113.5l-16 8q-47 -82 -122 -133t-204 -51q-76 0 -139 29l188 760q70 -39 70 -142q0 -23 -3 -38t-9 -31q8 -31 33.5 -51.5t60.5 -20.5q43 0 72.5 31.5 t29.5 74.5q0 45 -20.5 81t-54 63.5t-76.5 46t-90 29.5l61 233l-41 10l-55 -237q-43 6 -84 6q-100 0 -185.5 -40t-146.5 -106.5t-96 -152.5t-35 -180zM293 549q0 82 21.5 152.5t60.5 124t93 84t118 30.5q40 0 71 -8l-188 -760q-86 51 -131 152.5t-45 224.5z" />
<glyph unicode="&#xa3;" horiz-adv-x="1388" d="M-49 -268q0 -31 26.5 -45.5t57.5 -14.5q43 0 83 16.5t73.5 41t60.5 55.5t45 59h76q76 0 130 -33.5t104 -73.5t105.5 -73t135.5 -33t144.5 22.5t109.5 62.5t69.5 94.5t24.5 115.5q0 39 -24.5 68t-71.5 29q-41 0 -66.5 -25t-25.5 -61q0 -39 19.5 -53.5t44 -20.5t44 -12.5 t19.5 -26.5q0 -25 -14.5 -46.5t-38 -37.5t-51 -26.5t-52.5 -10.5q-59 0 -96 29.5t-77 65.5t-96.5 66t-154.5 30q-57 0 -100 -5.5t-101 -9.5l-4 8q25 20 57.5 57.5t66.5 83.5t63.5 102t48.5 118h278l23 69h-275q6 18 23.5 65.5l42 114t55.5 148.5t64.5 168t68.5 174t68 166 q16 37 39.5 90t56.5 102.5t75 84t91 34.5q25 0 39 -9t23.5 -22.5t13.5 -28.5t6 -28q10 -45 28.5 -63.5t53.5 -18.5q27 0 50.5 21.5t23.5 48.5q0 39 -22.5 64.5t-56.5 40t-75 19.5t-78 5q-86 0 -163.5 -42t-143.5 -110.5t-118 -156.5t-87 -183q-45 -121 -87 -233.5 t-75.5 -204.5t-57.5 -156.5t-32 -89.5h-190l-19 -63h189q-33 -111 -78 -214t-80 -167q-51 -20 -107.5 -32.5t-101.5 -26t-72.5 -32t-27.5 -50.5z" />
<glyph unicode="&#xa4;" horiz-adv-x="1349" d="M55 1305l252 -252q-96 -121 -96 -283q0 -158 98 -291l-252 -248l76 -75l252 250q133 -96 291 -97q152 0 289 97l252 -250l75 75l-252 248q100 131 101 291q0 164 -99 283l252 252l-80 75l-249 -245q-137 106 -289 106q-154 0 -291 -106l-250 245zM319 776q0 145 103 252 q104 104 254 105q145 0 249.5 -104.5t104.5 -252.5q0 -147 -104.5 -251.5t-249.5 -104.5q-150 0 -254 104q-102 106 -103 252z" />
<glyph unicode="&#xa5;" horiz-adv-x="1064" d="M-14 1096q29 0 54.5 -11.5t51 -35t51 -57.5t58.5 -81q23 -31 55.5 -84t68 -109t66.5 -106.5t45 -74.5l2 -41l-323 2v-41l323 2v-111l-323 2v-41l321 2v-67q0 -35 -1 -69t-6 -59.5t-15 -37.5q-35 -39 -66 -47t-69 -13v-18h487v18q-33 4 -72 16.5t-61 43.5q-16 23 -17 90 v143l322 -2v41l-324 -2v111l324 -2v41l-324 -2l2 67q33 53 68 107.5t65.5 103.5t55 87t37.5 54q27 39 50 70t48 53.5t54.5 37t70.5 20.5v18h-360v-18q20 -2 41.5 -5.5t40 -10.5t30.5 -20t12 -36q0 -27 -18 -63.5t-31 -59.5q-29 -51 -57.5 -100t-53 -90t-43 -71t-26.5 -42 q-25 39 -52.5 83t-54 85t-48 78t-37.5 61q-23 41 -44.5 77t-21.5 54q0 35 42 45.5t85 14.5v18h-483v-18z" />
<glyph unicode="&#xa6;" horiz-adv-x="497" d="M207 -276h84v806h-84v-806zM207 797h84v809h-84v-809z" />
<glyph unicode="&#xa7;" horiz-adv-x="958" d="M131 -254q0 -68 51 -103.5t121 -35.5q78 0 171 44t173 127t133.5 201.5t53.5 272.5q0 102 -20.5 195.5t-86.5 191.5q-29 43 -54.5 77t-51 66.5t-54 65.5t-61.5 72q-59 72 -102.5 138t-43.5 146q0 29 14.5 54.5t37 45t51.5 32t57 12.5q14 0 24.5 -1t24.5 -4 q25 -41 52.5 -71.5t78.5 -30.5q41 0 75 36t34 85q0 51 -30.5 90t-84.5 39q-96 0 -193.5 -68.5t-176 -179t-129 -252t-50.5 -286.5q0 -92 18.5 -160t61.5 -150q29 -53 57.5 -94t59.5 -78t64.5 -73.5t70.5 -83.5q49 -61 91 -119t42 -121q0 -31 -19.5 -56.5t-48 -43t-58 -28.5 t-52.5 -13q-35 20 -57.5 51t-43 57.5t-43 46t-57.5 19.5q-43 0 -71.5 -34t-28.5 -79zM213 844q0 49 8 88t25 84h16q29 -76 67 -128t89 -118q37 -47 68.5 -87t61.5 -79t58.5 -80t59.5 -90q27 -43 47 -80t34.5 -73.5t22.5 -77.5t8 -92q0 -45 -14 -87t-27 -59h-16 q-16 74 -56 131.5t-94 126.5q-39 51 -72.5 92t-65.5 79t-63.5 78t-64.5 89q-47 72 -69.5 133.5t-22.5 149.5z" />
<glyph unicode="&#xa8;" d="M248 1229q0 -39 27.5 -66.5t66.5 -27.5t66.5 27.5t27.5 66.5t-27.5 66.5t-66.5 27.5t-66.5 -27.5t-27.5 -66.5zM590 1229q0 -39 27.5 -66.5t66.5 -27.5t66.5 27.5t27.5 66.5t-27.5 66.5t-66.5 27.5t-66.5 -27.5t-27.5 -66.5z" />
<glyph unicode="&#xa9;" horiz-adv-x="2048" d="M231 471q0 -162 61.5 -305t168 -247.5t250 -166t305.5 -61.5t304 61.5t248.5 166t168 247.5t61.5 305t-61.5 305.5t-168 250t-248.5 167.5t-304 61t-305.5 -61t-250 -167.5t-168 -250t-61.5 -305.5zM295 471q0 150 56.5 281t153.5 229t229 154.5t282 56.5t280.5 -56.5 t228 -154.5t154 -229t56.5 -281t-56.5 -282t-154 -228t-228.5 -152.5t-280 -56.5q-150 0 -282 56.5t-229 152.5t-153.5 228.5t-56.5 281.5zM528 475q0 -104 34 -191t100.5 -151.5t164 -98.5t222.5 -34q66 0 117 11.5t86.5 26.5t55 27.5t21.5 12.5q6 0 23.5 -22.5t33.5 -45.5 h19l6 330h-22q-12 -55 -40 -111.5t-70 -100.5t-98.5 -71.5t-127.5 -27.5q-82 0 -145.5 35.5t-106.5 95t-64.5 140.5t-21.5 169q0 84 20.5 167t61.5 147.5t104.5 104.5t149.5 40q98 0 167.5 -51.5t114.5 -122.5q16 -27 30.5 -66t25.5 -74h22v324h-18q-16 -20 -36 -40.5 t-26 -20.5q-2 0 -21.5 13t-56 28.5t-88 27.5t-118.5 12q-86 0 -155 -18t-123 -49t-95 -72t-70 -86q-49 -78 -62.5 -145.5t-13.5 -112.5z" />
<glyph unicode="&#xaa;" horiz-adv-x="507" d="M61 1157q0 -18 13.5 -31.5t34.5 -13.5q23 0 39 13.5t16 29.5v47q0 12 26.5 28.5t59.5 16.5q45 0 61.5 -18.5t16.5 -22.5v-106q-20 -10 -63.5 -31.5t-108.5 -58.5q-35 -20 -59.5 -48t-24.5 -61q0 -55 34.5 -78.5t69.5 -23.5q59 0 95 28.5t55 53.5h6q0 -41 27.5 -61.5 t66.5 -20.5q47 0 77 33.5t34 80.5h-15q-4 -14 -15 -26.5t-34 -12.5q-18 0 -32.5 14.5t-14.5 55.5q0 68 1 122t1 126q0 16 -1 35.5t-5 27.5q-10 16 -38 33t-56 17q-29 0 -86.5 -22.5t-112.5 -53.5q-20 -10 -44 -27.5t-24 -44.5zM168 936q0 25 14.5 43t37 33.5t51 31 t57.5 29.5v-149q0 -14 -11 -25q-16 -16 -38.5 -21.5t-47.5 -5.5q-29 0 -46 18.5t-17 45.5z" />
<glyph unicode="&#xab;" horiz-adv-x="804" d="M109 518l342 -311l14 10l-178 307l176 305l-12 11l-342 -312v-10zM354 518l342 -325l15 10l-179 321l177 320l-13 10l-342 -326v-10z" />
<glyph unicode="&#xac;" horiz-adv-x="1433" d="M252 535h827v-422h88v501h-915v-79z" />
<glyph unicode="&#xad;" horiz-adv-x="651" d="M47 678h555v139h-555v-139z" />
<glyph unicode="&#xae;" horiz-adv-x="1052" d="M90 1217q0 -90 35 -169t94.5 -138.5t138 -93.5t168.5 -34t170 34t139.5 93.5t93.5 138.5t34 169t-34 169.5t-93.5 138t-139.5 92.5t-170 34t-168.5 -34t-138 -92.5t-94.5 -138t-35 -169.5zM131 1217q0 82 32 153.5t85 125.5t124.5 86t153.5 32t154 -32t126 -86t86 -125.5 t32 -153.5q0 -127 -66 -224q-33 4 -59.5 18.5t-55.5 47.5q-16 25 -37.5 54.5t-41.5 53.5q-23 27 -46 47v3q47 10 83 41.5t36 80.5q0 84 -71 117q-31 14 -68 18.5t-86 4.5q-18 0 -49 -1t-62 -1t-56.5 -1t-33.5 -1v-17q41 -6 60 -22q10 -10 12 -35t2 -47v-258q0 -23 -3 -46.5 t-11 -33.5q-10 -10 -28.5 -15.5t-35.5 -5.5v-20h240v20q-29 0 -45.5 7.5t-22.5 17.5t-7 27.5t-1 39.5v119q10 0 16.5 1t18.5 -3q14 -4 30.5 -16t28.5 -27q33 -37 50.5 -63.5t41.5 -63.5q10 -16 16.5 -25.5t9.5 -13.5t5 -8t8 -12h150q-55 -72 -138 -114t-182 -42 q-82 0 -153.5 32t-124.5 85t-85 126t-32 155zM471 1229v172q0 23 1 34t3 17q8 2 35 2q20 0 36.5 -1t33.5 -9q63 -31 63 -101q0 -35 -16.5 -62.5t-61.5 -43.5q-23 -6 -44 -7t-50 -1z" />
<glyph unicode="&#xaf;" d="M225 1180h576v92h-576v-92z" />
<glyph unicode="&#xb0;" horiz-adv-x="835" d="M129 1196q0 -61 22.5 -113.5t60.5 -91.5t90 -61.5t114 -22.5q61 0 114.5 22.5t92.5 62.5t61.5 92.5t22.5 111.5t-22.5 112.5t-61.5 92.5t-92.5 61.5t-112.5 22.5t-112.5 -22.5t-92.5 -60.5t-61.5 -91.5t-22.5 -114.5zM211 1196q0 43 16.5 81t45 65.5t65.5 44t80 16.5 t81 -16.5t65.5 -45t43 -65.5t15.5 -80t-15.5 -81t-43 -66.5t-65.5 -45t-81 -16.5t-80 16.5t-65.5 44t-45 66.5t-16.5 82z" />
<glyph unicode="&#xb1;" horiz-adv-x="1366" d="M125 0h1116v109h-1116v-109zM125 721h504v-504h108v504h504v108h-504v504h-108v-504h-504v-108z" />
<glyph unicode="&#xb2;" horiz-adv-x="546" d="M61 823l5 -16h419l76 151l-18 9q-14 -25 -36 -48.5t-83 -23.5h-197v4q45 31 78 55.5t59.5 49t49 49t45.5 53.5q10 14 14 35.5t4 32.5q0 43 -16.5 76.5t-44 55t-64.5 33t-76 11.5q-86 0 -148 -53.5t-65 -153.5h17q20 63 64 92t98 29q59 0 95 -34t36 -87q0 -55 -34 -103.5 t-83 -89.5t-102.5 -72.5t-92.5 -54.5z" />
<glyph unicode="&#xb3;" horiz-adv-x="495" d="M23 707q0 -47 51 -77t129 -30q53 0 102 15.5t89 45t63.5 74t23.5 101.5q0 39 -16 70.5t-41 58t-53.5 45t-55.5 30.5q45 39 72 69t45 58q4 6 6 17.5t2 15.5q0 70 -56 110t-130 40q-39 0 -75 -12.5t-63.5 -37t-44 -59.5t-16.5 -82h17q18 59 61 83t88 24q49 0 84 -26t35 -71 q0 -70 -38 -108.5t-99 -79.5l6 -14q76 -16 124 -67.5t48 -123.5q0 -45 -18.5 -73.5t-42 -45t-45 -21.5t-27.5 -5q-39 0 -64.5 14t-43 34.5t-26 43t-14.5 39.5q-43 0 -60 -17.5t-17 -37.5z" />
<glyph unicode="&#xb4;" d="M401 1065l21 -12l287 313v10q-12 16 -31 32.5t-64 16.5z" />
<glyph unicode="&#xb5;" horiz-adv-x="1290" d="M2 -416q0 -47 24.5 -67.5t57.5 -20.5q27 0 49.5 26.5t22.5 80.5q0 12 -4.5 30.5t-10.5 40l-12 43t-8 39.5q2 20 9 81t20.5 138.5t36 171t57.5 179.5h18q-4 -23 -6 -42.5t-2 -37.5q0 -125 51 -189.5t137 -64.5q127 0 230.5 86t163.5 231h6q-4 -16 -7.5 -43.5t-3.5 -46.5 q0 -47 7.5 -89t25 -72.5t47 -47t74.5 -16.5q43 0 84 15.5t78 62.5q39 49 58.5 121.5t19.5 183.5h-21q-23 -121 -72 -171t-128 -50q-47 0 -89.5 42t-42.5 138q0 12 14.5 45t38 87t53.5 129t60 167q6 20 17.5 58t13.5 75t-14.5 63.5t-63.5 26.5q-39 0 -63.5 -21.5t-40 -54 t-22.5 -68.5t-13 -65q-6 -27 -13.5 -66.5t-14.5 -76.5t-13 -66.5t-8 -36.5q-14 -49 -45 -113.5t-74 -120.5t-95 -96t-110 -40q-72 0 -122 43t-50 123q0 43 21 100q27 82 59.5 152.5t61.5 164.5q10 31 21 73t13 80t-13 64.5t-60 26.5q-41 0 -67 -24.5t-41 -61.5t-22.5 -78 t-13.5 -73q-6 -45 -13 -99.5t-13.5 -102.5t-10.5 -85t-8 -49q-4 -25 -18.5 -69t-32.5 -101.5t-39.5 -124t-42.5 -133.5q-41 -143 -63.5 -241.5t-22.5 -162.5z" />
<glyph unicode="&#xb6;" horiz-adv-x="1085" d="M117 993q0 -113 42 -208t114.5 -163.5t170 -106.5t209.5 -38h76v-295q0 -113 -16.5 -208t-52 -167.5t-91 -114.5t-133.5 -42q-35 0 -70.5 8t-52.5 35q10 6 20.5 19.5t10.5 47.5q0 37 -29.5 62.5t-74.5 25.5q-47 0 -79 -32.5t-32 -73.5q0 -35 16.5 -61.5t44 -46t61.5 -30 t68 -10.5q129 0 221.5 45.5t151 121t86 172t27.5 202.5v1198q0 47 24.5 72t55 35t57.5 11t33 1v23q-47 0 -114.5 1t-123.5 1q-154 0 -269.5 -36t-194 -100.5t-117.5 -153.5t-39 -194z" />
<glyph unicode="&#xb7;" horiz-adv-x="538" d="M152 532q0 -53 34.5 -86.5t87.5 -33.5t86 31.5t33 84.5t-32.5 91t-86.5 38q-53 0 -87.5 -35.5t-34.5 -89.5z" />
<glyph unicode="&#xb8;" d="M305 -362q0 -49 43 -71t113 -22q29 0 65.5 11.5t70.5 34t56.5 57.5t22.5 82q0 12 -4 34.5t-19.5 49t-46.5 54.5t-82 48l92 96h-41l-163 -166q74 -25 111.5 -67.5t37.5 -95.5q0 -55 -26.5 -84t-63.5 -29q-45 0 -45 63q0 8 1 18.5t1 22.5q-18 23 -59 23q-35 0 -49.5 -19.5 t-14.5 -39.5z" />
<glyph unicode="&#xb9;" horiz-adv-x="411" d="M66 807h321v20q-8 0 -23.5 2t-32 5.5t-28.5 7.5t-16 8q-6 8 -7 24.5t-1 36.5v166q0 43 1 83t1 67v33q0 18 8 30q10 16 46 20.5l52 6.5v20h-319v-20q18 -2 52 -6t44 -15q8 -10 9 -31.5t1 -43.5v-148q0 -39 -1 -86t-1 -67t-1 -40t-9 -30q-10 -10 -44 -15.5t-52 -7.5v-20z " />
<glyph unicode="&#xba;" horiz-adv-x="573" d="M49 1057q0 -66 24.5 -115t63.5 -81t84 -47t88 -15q53 0 99.5 20.5t81 55t55 82t20.5 100.5q0 61 -23.5 107t-60.5 78t-82 47.5t-88 15.5q-59 0 -107 -21.5t-83 -56.5t-53.5 -79t-18.5 -91zM160 1051q0 41 10 80.5t28.5 72.5t45 53.5t61.5 20.5q43 0 70.5 -21.5t45 -54.5 t25 -71.5t7.5 -71.5q0 -35 -7.5 -76t-25 -76t-44 -58.5t-65.5 -23.5q-41 0 -69.5 18.5t-47 49.5t-26.5 72t-8 86z" />
<glyph unicode="&#xbb;" horiz-adv-x="804" d="M96 203l15 -10l342 325v10l-342 326l-13 -10l176 -320zM342 217l14 -10l342 311v10l-342 312l-12 -11l176 -305z" />
<glyph unicode="&#xbc;" d="M74 506h884v55h-884v-55zM152 -141l4 -15h397v-237h135v237h193v97h-197v483h-27l-444 -479zM250 -59l303 321v-321h-303zM309 1389q23 0 47.5 -4.5t47 -11.5t37 -19.5t14.5 -30.5v-553q0 -18 -13.5 -30.5t-35 -20.5t-45 -12.5t-46.5 -4.5v-22h430v22q-18 0 -43.5 3.5 t-48 10.5t-38 19.5t-15.5 32.5v553q0 18 15.5 30.5t37 20.5t47 12.5t45.5 4.5v22h-436v-22z" />
<glyph unicode="&#xbd;" d="M74 506h884v55h-884v-55zM219 145l21 -10q41 59 99 100t138 41t120 -49t40 -114q0 -57 -39 -116.5t-97.5 -119t-126 -114t-124.5 -99.5l2 -18h577l84 227l-22 8q-8 -18 -17.5 -36.5t-26 -34t-43 -25.5t-71.5 -10h-301v2q55 43 115.5 88t111 94t83 110.5t32.5 137.5 q0 84 -58.5 136t-148.5 52q-63 0 -116.5 -22.5t-96.5 -58t-76.5 -81t-58.5 -88.5zM309 1389q23 0 47.5 -4.5t47 -11.5t37 -19.5t14.5 -30.5v-553q0 -18 -13.5 -30.5t-35 -20.5t-45 -12.5t-46.5 -4.5v-22h430v22q-18 0 -43.5 3.5t-48 10.5t-38 19.5t-15.5 32.5v553 q0 18 15.5 30.5t37 20.5t47 12.5t45.5 4.5v22h-436v-22z" />
<glyph unicode="&#xbe;" d="M74 506h884v55h-884v-55zM152 -141l4 -15h397v-237h135v237h193v97h-197v483h-27l-444 -479zM250 -59l303 321v-321h-303zM256 772q0 -51 61.5 -83t155.5 -32q66 0 127.5 16.5t109.5 47.5t77.5 78t29.5 108q0 39 -19.5 73t-49 59.5t-67.5 45t-75 31.5q72 43 114 75t42 83 q0 37 -17.5 68.5t-47 54t-69.5 36t-83 13.5q-41 0 -83 -13.5t-76 -40t-56.5 -66.5t-24.5 -93l19 -2q20 66 70 91.5t104 25.5q57 0 94 -31t37 -78q0 -66 -39 -107.5t-119 -93.5l2 -14q102 -14 155.5 -60t53.5 -120q0 -45 -21.5 -76t-48 -47t-51 -23.5t-31.5 -7.5 q-43 0 -71.5 16.5t-48 40t-31.5 49t-23 44.5q-63 0 -81.5 -22.5t-18.5 -45.5z" />
<glyph unicode="&#xbf;" horiz-adv-x="784" d="M147 555q0 -45 3.5 -97t15.5 -104.5t33.5 -98.5t58.5 -81q53 -51 113.5 -67.5t152.5 -16.5v-96h35v315q-35 -4 -67.5 -6t-47.5 -2q-45 0 -91 7t-83 29.5t-59.5 63.5t-22.5 107q0 51 10.5 86t30 59.5t50 42t71.5 29.5q49 16 101.5 25.5t105.5 19.5v358h-37v-165 q-123 -25 -193.5 -47.5t-111.5 -61.5q-20 -18 -32.5 -54t-20.5 -79t-11.5 -87t-3.5 -79zM391 1374q0 -53 34 -91t87 -38t88 36t35 89t-35 87t-88 34t-87 -32t-34 -85z" />
<glyph unicode="&#xc0;" horiz-adv-x="1441" d="M-66 0h437v20q-27 4 -56.5 9.5t-55.5 16.5t-42 28.5t-16 44.5q0 45 43 155q29 72 57.5 142.5t58.5 148.5h545q31 -80 57.5 -153.5t47 -134t32 -102.5t11.5 -60q0 -29 -19.5 -47.5t-45 -28.5t-49.5 -14.5t-30 -4.5v-20h598v25q-47 2 -81.5 18t-58.5 37.5t-38 42t-18 29.5 q-25 53 -44.5 95t-41.5 105q-49 129 -98.5 261t-101.5 273.5t-109.5 294t-120.5 322.5h-17q-8 -14 -23.5 -36.5t-38 -47t-52 -47t-66.5 -39.5l20 -45q-49 -115 -104 -247t-111.5 -262t-109.5 -253t-96 -219q-47 -104 -80 -157.5t-47 -67.5q-6 -8 -44 -30.5t-92 -28.5v-23z M379 608q49 121 91 224.5t77 185.5t58.5 139t35.5 84q18 -45 46 -115.5t61.5 -155.5t69.5 -177.5t71 -184.5h-510zM494 1849l360 -293l23 15l-279 342q-45 0 -69.5 -18.5t-34.5 -34.5v-11z" />
<glyph unicode="&#xc1;" horiz-adv-x="1441" d="M-66 0h437v20q-27 4 -56.5 9.5t-55.5 16.5t-42 28.5t-16 44.5q0 45 43 155q29 72 57.5 142.5t58.5 148.5h545q31 -80 57.5 -153.5t47 -134t32 -102.5t11.5 -60q0 -29 -19.5 -47.5t-45 -28.5t-49.5 -14.5t-30 -4.5v-20h598v25q-47 2 -81.5 18t-58.5 37.5t-38 42t-18 29.5 q-25 53 -44.5 95t-41.5 105q-49 129 -98.5 261t-101.5 273.5t-109.5 294t-120.5 322.5h-17q-8 -14 -23.5 -36.5t-38 -47t-52 -47t-66.5 -39.5l20 -45q-49 -115 -104 -247t-111.5 -262t-109.5 -253t-96 -219q-47 -104 -80 -157.5t-47 -67.5q-6 -8 -44 -30.5t-92 -28.5v-23z M379 608q49 121 91 224.5t77 185.5t58.5 139t35.5 84q18 -45 46 -115.5t61.5 -155.5t69.5 -177.5t71 -184.5h-510zM586 1571l22 -15l361 293v11q-10 16 -35 34.5t-70 18.5z" />
<glyph unicode="&#xc2;" horiz-adv-x="1441" d="M-66 0h437v20q-27 4 -56.5 9.5t-55.5 16.5t-42 28.5t-16 44.5q0 45 43 155q29 72 57.5 142.5t58.5 148.5h545q31 -80 57.5 -153.5t47 -134t32 -102.5t11.5 -60q0 -29 -19.5 -47.5t-45 -28.5t-49.5 -14.5t-30 -4.5v-20h598v25q-47 2 -81.5 18t-58.5 37.5t-38 42t-18 29.5 q-25 53 -44.5 95t-41.5 105q-49 129 -98.5 261t-101.5 273.5t-109.5 294t-120.5 322.5h-17q-8 -14 -23.5 -36.5t-38 -47t-52 -47t-66.5 -39.5l20 -45q-49 -115 -104 -247t-111.5 -262t-109.5 -253t-96 -219q-47 -104 -80 -157.5t-47 -67.5q-6 -8 -44 -30.5t-92 -28.5v-23z M379 608q49 121 91 224.5t77 185.5t58.5 139t35.5 84q18 -45 46 -115.5t61.5 -155.5t69.5 -177.5t71 -184.5h-510zM498 1559l26 -15l205 213l207 -213l27 15l-218 333h-30z" />
<glyph unicode="&#xc3;" horiz-adv-x="1441" d="M-66 0h437v20q-27 4 -56.5 9.5t-55.5 16.5t-42 28.5t-16 44.5q0 45 43 155q29 72 57.5 142.5t58.5 148.5h545q31 -80 57.5 -153.5t47 -134t32 -102.5t11.5 -60q0 -29 -19.5 -47.5t-45 -28.5t-49.5 -14.5t-30 -4.5v-20h598v25q-47 2 -81.5 18t-58.5 37.5t-38 42t-18 29.5 q-25 53 -44.5 95t-41.5 105q-49 129 -98.5 261t-101.5 273.5t-109.5 294t-120.5 322.5h-17q-8 -14 -23.5 -36.5t-38 -47t-52 -47t-66.5 -39.5l20 -45q-49 -115 -104 -247t-111.5 -262t-109.5 -253t-96 -219q-47 -104 -80 -157.5t-47 -67.5q-6 -8 -44 -30.5t-92 -28.5v-23z M379 608q49 121 91 224.5t77 185.5t58.5 139t35.5 84q18 -45 46 -115.5t61.5 -155.5t69.5 -177.5t71 -184.5h-510zM436 1544h29q14 37 27.5 57.5t32 29.5t46 10t68.5 1l219 -43q59 0 99 18.5t68 48.5t45.5 70t27.5 83h-31q-16 -74 -60 -91.5t-122 -17.5l-215 43 q-98 0 -154.5 -58.5t-79.5 -150.5z" />
<glyph unicode="&#xc4;" horiz-adv-x="1441" d="M-66 0h437v20q-27 4 -56.5 9.5t-55.5 16.5t-42 28.5t-16 44.5q0 45 43 155q29 72 57.5 142.5t58.5 148.5h545q31 -80 57.5 -153.5t47 -134t32 -102.5t11.5 -60q0 -29 -19.5 -47.5t-45 -28.5t-49.5 -14.5t-30 -4.5v-20h598v25q-47 2 -81.5 18t-58.5 37.5t-38 42t-18 29.5 q-25 53 -44.5 95t-41.5 105q-49 129 -98.5 261t-101.5 273.5t-109.5 294t-120.5 322.5h-17q-8 -14 -23.5 -36.5t-38 -47t-52 -47t-66.5 -39.5l20 -45q-49 -115 -104 -247t-111.5 -262t-109.5 -253t-96 -219q-47 -104 -80 -157.5t-47 -67.5q-6 -8 -44 -30.5t-92 -28.5v-23z M379 608q49 121 91 224.5t77 185.5t58.5 139t35.5 84q18 -45 46 -115.5t61.5 -155.5t69.5 -177.5t71 -184.5h-510zM467 1669q0 -39 27.5 -66.5t66.5 -27.5t66.5 27.5t27.5 66.5t-27.5 66.5t-66.5 27.5t-66.5 -27.5t-27.5 -66.5zM827 1669q0 -39 28 -66.5t67 -27.5t66.5 27.5 t27.5 66.5t-27.5 66.5t-66.5 27.5t-67 -27.5t-28 -66.5z" />
<glyph unicode="&#xc5;" horiz-adv-x="1441" d="M-66 0h437v20q-27 4 -56.5 9.5t-55.5 16.5t-42 28.5t-16 44.5q0 45 43 155q29 72 57.5 142.5t58.5 148.5h545q31 -80 57.5 -153.5t47 -134t32 -102.5t11.5 -60q0 -29 -19.5 -47.5t-45 -28.5t-49.5 -14.5t-30 -4.5v-20h598v25q-47 2 -81.5 18t-58.5 37.5t-38 42t-18 29.5 q-25 53 -44.5 95t-41.5 105q-49 129 -98.5 261t-101.5 273.5t-109.5 294t-120.5 322.5h-17q-8 -14 -23.5 -36.5t-38 -47t-52 -47t-66.5 -39.5l20 -45q-49 -115 -104 -247t-111.5 -262t-109.5 -253t-96 -219q-47 -104 -80 -157.5t-47 -67.5q-6 -8 -44 -30.5t-92 -28.5v-23z M379 608q49 121 91 224.5t77 185.5t58.5 139t35.5 84q18 -45 46 -115.5t61.5 -155.5t69.5 -177.5t71 -184.5h-510zM553 1677q0 -68 43 -110.5t115 -42.5q70 0 113.5 43.5t43.5 109.5q0 68 -45 111t-112 43q-66 0 -112 -44t-46 -110zM610 1677q0 47 28 79t73 32 q47 0 73.5 -32t26.5 -79t-26.5 -78.5t-73.5 -31.5t-74 31.5t-27 78.5z" />
<glyph unicode="&#xc6;" horiz-adv-x="2080" d="M-115 0h451v20q-27 4 -53.5 9.5t-48 16.5t-36 28.5t-14.5 44.5q0 25 19.5 74t79.5 143q33 53 74.5 122.5t82.5 129.5h549q0 -78 -1 -156t-3 -113q0 -33 -1 -68.5t-3 -68t-7 -57.5t-16 -37q-31 -37 -68.5 -48t-88.5 -20v-20h1179l82 408l-22 6q-84 -174 -180.5 -264.5 t-225.5 -106.5q-59 -8 -113.5 -10t-88.5 -2q-160 0 -195 53q-16 25 -19.5 85t-5.5 126q-2 68 -2 186v252h47h35q16 0 35 -1t49 -3q119 -6 187 -67q37 -35 67.5 -106t46.5 -136h25v645h-25q-12 -57 -26.5 -103.5t-39 -81t-64.5 -59t-101 -39.5q-29 -6 -64.5 -10t-68.5 -5 t-62 -1h-41v670q23 4 63 7t83 3q135 0 223 -13.5t123 -29.5q72 -35 132 -104.5t142 -174.5l21 11l-101 340h-1114v-21q51 -6 91 -15t75 -28q-80 -119 -182 -270.5t-206.5 -306t-199 -294t-159.5 -233.5q-74 -104 -122 -157.5t-65 -67.5q-10 -8 -41.5 -30.5t-87.5 -28.5v-23z M471 631q70 106 149.5 226t151.5 227.5t128 189.5t79 112h10v-755h-518z" />
<glyph unicode="&#xc7;" horiz-adv-x="1589" d="M57 741q0 -164 57.5 -302t163 -237.5t258 -153.5t343.5 -54l-136 -164q86 -16 131.5 -58t45.5 -102q0 -59 -29 -90t-70 -31q-55 0 -55 68q0 8 1 18.5t1 24.5q-10 10 -24.5 17.5t-38.5 7.5q-35 0 -50.5 -20.5t-15.5 -43.5q0 -53 49 -75.5t123 -22.5q31 0 70 12t74.5 37 t60 61.5t24.5 85.5q0 25 -10 52.5t-31.5 55.5t-56.5 50.5t-86 34.5l57 82q109 2 192 22.5t140.5 45t88 44t34.5 19.5q10 0 37 -28.5t51 -63.5h25l6 450h-25q-18 -88 -68.5 -171t-123 -146.5t-165.5 -102t-200 -38.5q-135 0 -245.5 55t-188.5 150.5t-120 224.5t-42 276 q0 139 40 271.5t115 236.5t185.5 167.5t251.5 63.5q102 0 193.5 -36.5t164 -100t126 -149.5t79.5 -185l25 2v459h-23q-12 -18 -26.5 -35.5t-27.5 -31t-24.5 -22.5t-15.5 -9t-36.5 22.5t-94 49t-154 49t-215.5 22.5q-135 0 -243.5 -28.5t-194.5 -76.5t-149.5 -111.5 t-106.5 -133.5q-37 -59 -60.5 -117.5t-36.5 -112t-18.5 -100.5t-5.5 -84z" />
<glyph unicode="&#xc8;" horiz-adv-x="1456" d="M84 0h1253l103 391l-23 6q-51 -88 -99 -150.5t-99.5 -105.5t-106.5 -66.5t-121 -31.5q-59 -8 -113.5 -10t-89.5 -2q-82 0 -151.5 12t-88 41t-23.5 87t-7 124q0 35 -1 83t-1 105v123v131h55h41q20 0 42 -1t53 -3q61 -4 107 -22.5t79 -46.5q37 -35 70.5 -105t50.5 -135h24 v645h-24q-12 -57 -27.5 -103t-41 -81t-66.5 -59.5t-103 -39.5q-29 -6 -68.5 -10t-77.5 -5t-71 -1h-43v76v131t1 157t3 154q2 37 4 60.5t4 38t4.5 25.5t4.5 24q18 6 60 8t85 2q135 0 229.5 -12.5t128.5 -28.5q145 -72 312 -279l20 11l-139 338h-1131v-21q55 -8 90 -17.5 t66 -41.5q12 -12 19.5 -40t10.5 -63t4 -73.5t1 -75.5v-400v-118q0 -61 -1 -120t-2 -108t-1 -78q0 -33 -2 -66.5t-7.5 -64t-11.5 -54t-16 -36.5q-29 -33 -73 -51t-95 -27v-20zM524 1849l361 -293l22 15l-278 342q-45 0 -69.5 -18.5t-35.5 -34.5v-11z" />
<glyph unicode="&#xc9;" horiz-adv-x="1456" d="M84 0h1253l103 391l-23 6q-51 -88 -99 -150.5t-99.5 -105.5t-106.5 -66.5t-121 -31.5q-59 -8 -113.5 -10t-89.5 -2q-82 0 -151.5 12t-88 41t-23.5 87t-7 124q0 35 -1 83t-1 105v123v131h55h41q20 0 42 -1t53 -3q61 -4 107 -22.5t79 -46.5q37 -35 70.5 -105t50.5 -135h24 v645h-24q-12 -57 -27.5 -103t-41 -81t-66.5 -59.5t-103 -39.5q-29 -6 -70.5 -10t-80.5 -5t-70 -1h-39v70v131t1 161t3 156q2 37 4 60.5t4 38t4.5 25.5t4.5 24q18 6 60 8t85 2q135 0 229.5 -12.5t128.5 -28.5q145 -72 312 -279l20 11l-139 338h-1131v-21q55 -8 90 -17.5 t66 -41.5q12 -12 19.5 -40t10.5 -63t4 -73.5t1 -75.5v-400v-118q0 -61 -1 -120t-2 -108t-1 -78q0 -33 -2 -66.5t-7.5 -64t-11.5 -54t-16 -36.5q-29 -33 -73 -51t-95 -27v-20zM637 1571l22 -15l361 293v11q-10 16 -34.5 34.5t-70.5 18.5z" />
<glyph unicode="&#xca;" horiz-adv-x="1456" d="M84 0h1253l103 391l-23 6q-51 -88 -99 -150.5t-99.5 -105.5t-106.5 -66.5t-121 -31.5q-59 -8 -113.5 -10t-89.5 -2q-82 0 -151.5 12t-88 41t-23.5 87t-7 124q0 35 -1 83t-1 105v123v131h55h41q20 0 42 -1t53 -3q61 -4 107 -22.5t79 -46.5q37 -35 70.5 -105t50.5 -135h24 v645h-24q-12 -57 -27.5 -103t-41 -81t-66.5 -59.5t-103 -39.5q-29 -6 -70.5 -10t-81.5 -5t-71 -1h-37v72v131q0 76 1 160t3 155q2 37 4 60.5t4 38t4.5 25.5t4.5 24q18 6 60 8t85 2q135 0 229.5 -12.5t128.5 -28.5q145 -72 312 -279l20 11l-139 338h-1131v-21q55 -8 90 -17.5 t66 -41.5q12 -12 19.5 -40t10.5 -63t4 -73.5t1 -75.5v-400v-118q0 -61 -1 -120t-2 -108t-1 -78q0 -33 -2 -66.5t-7.5 -64t-11.5 -54t-16 -36.5q-29 -33 -73 -51t-95 -27v-20zM547 1579l26 -14l205 213l207 -213l27 14l-217 334h-31z" />
<glyph unicode="&#xcb;" horiz-adv-x="1456" d="M84 0h1253l103 391l-23 6q-51 -88 -99 -150.5t-99.5 -105.5t-106.5 -66.5t-121 -31.5q-59 -8 -113.5 -10t-89.5 -2q-82 0 -151.5 12t-88 41t-23.5 87t-7 124q0 35 -1 83t-1 105v123v131h55h41q20 0 42 -1t53 -3q61 -4 107 -22.5t79 -46.5q37 -35 70.5 -105t50.5 -135h24 v645h-24q-12 -57 -27.5 -103t-41 -81t-66.5 -59.5t-103 -39.5q-29 -6 -68.5 -10t-77.5 -5t-71 -1h-43v72v131t1 160t3 155q2 37 4 60.5t4 38t4.5 25.5t4.5 24q18 6 60 8t85 2q135 0 229.5 -12.5t128.5 -28.5q145 -72 312 -279l20 11l-139 338h-1131v-21q55 -8 90 -17.5 t66 -41.5q12 -12 19.5 -40t10.5 -63t4 -73.5t1 -75.5v-400v-118q0 -61 -1 -120t-2 -108t-1 -78q0 -33 -2 -66.5t-7.5 -64t-11.5 -54t-16 -36.5q-29 -33 -73 -51t-95 -27v-20zM514 1700q0 -39 27.5 -66.5t66.5 -27.5t66.5 27.5t27.5 66.5t-27.5 66.5t-66.5 27.5t-66.5 -27.5 t-27.5 -66.5zM877 1700q0 -39 27.5 -66.5t66.5 -27.5t66.5 27.5t27.5 66.5t-27.5 66.5t-66.5 27.5t-66.5 -27.5t-27.5 -66.5z" />
<glyph unicode="&#xcc;" horiz-adv-x="817" d="M94 0h621v20q-43 4 -96.5 22.5t-77.5 53.5q-16 23 -18.5 78t-2.5 115v463v116v107q0 51 1 101t1 102q2 47 3 100t20 88q27 49 76 65.5t92 22.5v21h-613v-21q53 -6 95.5 -21.5t70.5 -50.5q12 -14 18.5 -39.5t9.5 -57.5t3 -68v-74v-400v-118q0 -61 -1 -120t-2 -108t-1 -78 q0 -33 -1 -66.5t-4 -64t-8.5 -53t-15.5 -35.5q-31 -35 -75 -53t-95 -27v-20zM154 1849l348 -293l22 15l-268 342q-45 0 -68.5 -18.5t-33.5 -34.5v-11z" />
<glyph unicode="&#xcd;" horiz-adv-x="817" d="M94 0h621v20q-43 4 -96.5 22.5t-77.5 53.5q-16 23 -18.5 78t-2.5 115v463v116v107q0 51 1 101t1 102q2 47 3 100t20 88q27 49 76 65.5t92 22.5v21h-613v-21q53 -6 95.5 -21.5t70.5 -50.5q12 -14 18.5 -39.5t9.5 -57.5t3 -68v-74v-400v-118q0 -61 -1 -120t-2 -108t-1 -78 q0 -33 -1 -66.5t-4 -64t-8.5 -53t-15.5 -35.5q-31 -35 -75 -53t-95 -27v-20zM289 1571l22 -15l348 293v11q-10 16 -33.5 34.5t-68.5 18.5z" />
<glyph unicode="&#xce;" horiz-adv-x="817" d="M94 0h621v20q-43 4 -96.5 22.5t-77.5 53.5q-16 23 -18.5 78t-2.5 115v463v116v107q0 51 1 101t1 102q2 47 3 100t20 88q27 49 76 65.5t92 22.5v21h-613v-21q53 -6 95.5 -21.5t70.5 -50.5q12 -14 18.5 -39.5t9.5 -57.5t3 -68v-74v-400v-118q0 -61 -1 -120t-2 -108t-1 -78 q0 -33 -1 -66.5t-4 -64t-8.5 -53t-15.5 -35.5q-31 -35 -75 -53t-95 -27v-20zM182 1579l27 -14l194 213l197 -213l27 14l-207 334h-31z" />
<glyph unicode="&#xcf;" horiz-adv-x="817" d="M94 0h621v20q-43 4 -96.5 22.5t-77.5 53.5q-16 23 -18.5 78t-2.5 115v463v116v107q0 51 1 101t1 102q2 47 3 100t20 88q27 49 76 65.5t92 22.5v21h-613v-21q53 -6 95.5 -21.5t70.5 -50.5q12 -14 18.5 -39.5t9.5 -57.5t3 -68v-74v-400v-118q0 -61 -1 -120t-2 -108t-1 -78 q0 -33 -1 -66.5t-4 -64t-8.5 -53t-15.5 -35.5q-31 -35 -75 -53t-95 -27v-20zM143 1700q0 -39 28 -66.5t67 -27.5t66.5 27.5t27.5 66.5t-28 66.5t-66 27.5q-39 0 -67 -27.5t-28 -66.5zM485 1700q0 -39 28 -66.5t67 -27.5t66.5 27.5t27.5 66.5t-28 66.5t-66 27.5 q-39 0 -67 -27.5t-28 -66.5z" />
<glyph unicode="&#xd0;" horiz-adv-x="1744" d="M59 723l234 2v-117q0 -59 -1 -114.5t-2 -101.5t-1 -73q0 -33 -2 -67.5t-6.5 -65t-9.5 -55.5t-15 -35q-25 -29 -73 -49t-99 -27v-20h747q94 0 194.5 13.5t195 46t178.5 88t147.5 139.5t100 200.5t36.5 270.5q0 133 -33.5 236.5t-90 182t-132 136t-161.5 94.5 q-66 29 -133.5 43t-135 20.5t-135.5 6.5h-131h-221q-104 0 -190.5 -1t-145.5 -1h-82v-21q53 -6 96 -20.5t74 -51.5q12 -14 18.5 -39.5t9.5 -57.5t3 -68v-74v-367l-234 2v-55zM516 489v236l367 -2v55l-367 -2q0 229 2 391t12 260q14 4 38 6.5t51.5 5.5t56.5 4t53 1 q72 0 121 -5t90 -14q106 -18 196.5 -81.5t156 -154.5t102.5 -203.5t37 -231.5q0 -268 -110 -451.5t-331 -247.5q-47 -14 -101 -19t-106 -5q-55 0 -117.5 11t-103.5 52q-12 12 -21.5 38t-13.5 57.5t-7 65.5t-3 62q-2 66 -2 172z" />
<glyph unicode="&#xd1;" horiz-adv-x="1792" d="M68 0h503v20q-84 10 -132 34t-70 71q-20 41 -25.5 125t-5.5 188v865q139 -156 264 -301.5t255 -298t273.5 -320.5t317.5 -369q20 -20 37 -20q10 0 15 5t5 13v133t-1 149t-1 146v131q0 137 3 257t7 208q4 94 8.5 177t18.5 114q25 59 71 88t122 39v21h-508v-21 q98 -14 150 -50t73 -93q16 -43 18 -118t2 -157v-696l-970 1135h-416v-21q33 -4 68.5 -13t66.5 -30.5t53.5 -59.5t28.5 -98q2 -59 2 -100v-76v-76v-98q0 -137 -2 -257t-6 -208q-4 -117 -12.5 -200.5t-36.5 -126.5q-29 -45 -78 -64.5t-98 -26.5v-20zM645 1565h29 q14 37 27.5 57t32 29.5t46 10.5t68.5 1l219 -43q59 0 99 18.5t68 48t45.5 69.5t27.5 83h-31q-16 -74 -60.5 -91t-121.5 -17l-215 43q-98 0 -154.5 -58.5t-79.5 -150.5z" />
<glyph unicode="&#xd2;" horiz-adv-x="1654" d="M59 739q0 -166 60.5 -304t165 -237.5t244 -153.5t294.5 -54q158 0 298.5 55t246 157.5t166.5 242t61 303.5q0 147 -51 282t-147.5 238.5t-234.5 165t-312 61.5q-160 0 -304.5 -52t-252 -149.5t-171 -238t-63.5 -316.5zM313 733q0 133 30 263t92.5 232.5t159.5 167 t230 64.5q131 0 227.5 -64.5t161 -168t96 -230.5t31.5 -252q0 -129 -31.5 -258t-95 -232t-158.5 -169t-225 -66q-129 0 -226 59.5t-161.5 158t-97.5 227.5t-33 268zM623 1849l360 -293l23 15l-279 342q-45 0 -69.5 -18.5t-34.5 -34.5v-11z" />
<glyph unicode="&#xd3;" horiz-adv-x="1654" d="M59 739q0 -166 60.5 -304t165 -237.5t244 -153.5t294.5 -54q158 0 298.5 55t246 157.5t166.5 242t61 303.5q0 147 -51 282t-147.5 238.5t-234.5 165t-312 61.5q-160 0 -304.5 -52t-252 -149.5t-171 -238t-63.5 -316.5zM313 733q0 133 30 263t92.5 232.5t159.5 167 t230 64.5q131 0 227.5 -64.5t161 -168t96 -230.5t31.5 -252q0 -129 -31.5 -258t-95 -232t-158.5 -169t-225 -66q-129 0 -226 59.5t-161.5 158t-97.5 227.5t-33 268zM670 1571l22 -15l361 293v11q-10 16 -35 34.5t-70 18.5z" />
<glyph unicode="&#xd4;" horiz-adv-x="1654" d="M59 739q0 -166 60.5 -304t165 -237.5t244 -153.5t294.5 -54q158 0 298.5 55t246 157.5t166.5 242t61 303.5q0 147 -51 282t-147.5 238.5t-234.5 165t-312 61.5q-160 0 -304.5 -52t-252 -149.5t-171 -238t-63.5 -316.5zM313 733q0 133 30 263t92.5 232.5t159.5 167 t230 64.5q131 0 227.5 -64.5t161 -168t96 -230.5t31.5 -252q0 -129 -31.5 -258t-95 -232t-158.5 -169t-225 -66q-129 0 -226 59.5t-161.5 158t-97.5 227.5t-33 268zM596 1579l27 -14l204 213l207 -213l27 14l-217 334h-31z" />
<glyph unicode="&#xd5;" horiz-adv-x="1654" d="M59 739q0 -166 60.5 -304t165 -237.5t244 -153.5t294.5 -54q158 0 298.5 55t246 157.5t166.5 242t61 303.5q0 147 -51 282t-147.5 238.5t-234.5 165t-312 61.5q-160 0 -304.5 -52t-252 -149.5t-171 -238t-63.5 -316.5zM313 733q0 133 30 263t92.5 232.5t159.5 167 t230 64.5q131 0 227.5 -64.5t161 -168t96 -230.5t31.5 -252q0 -129 -31.5 -258t-95 -232t-158.5 -169t-225 -66q-129 0 -226 59.5t-161.5 158t-97.5 227.5t-33 268zM506 1565h29q14 37 27 57t31.5 29.5t46.5 10.5t69 1l219 -43q59 0 99 18.5t67.5 48t45 69.5t27.5 83h-30 q-16 -74 -60.5 -91t-122.5 -17l-215 43q-98 0 -154.5 -58.5t-78.5 -150.5z" />
<glyph unicode="&#xd6;" horiz-adv-x="1654" d="M59 739q0 -166 60.5 -304t165 -237.5t244 -153.5t294.5 -54q158 0 298.5 55t246 157.5t166.5 242t61 303.5q0 147 -51 282t-147.5 238.5t-234.5 165t-312 61.5q-160 0 -304.5 -52t-252 -149.5t-171 -238t-63.5 -316.5zM313 733q0 133 30 263t92.5 232.5t159.5 167 t230 64.5q131 0 227.5 -64.5t161 -168t96 -230.5t31.5 -252q0 -129 -31.5 -258t-95 -232t-158.5 -169t-225 -66q-129 0 -226 59.5t-161.5 158t-97.5 227.5t-33 268zM559 1700q0 -39 27.5 -66.5t66.5 -27.5t67 27.5t28 66.5t-28 66.5t-67 27.5t-66.5 -27.5t-27.5 -66.5z M922 1700q0 -39 27.5 -66.5t66.5 -27.5t66.5 27.5t27.5 66.5t-27.5 66.5t-66.5 27.5t-66.5 -27.5t-27.5 -66.5z" />
<glyph unicode="&#xd7;" horiz-adv-x="1433" d="M319 193l58 -58l342 344l340 -344l55 58l-344 339l344 340l-57 58l-340 -344l-340 344l-58 -56l345 -339z" />
<glyph unicode="&#xd8;" horiz-adv-x="1654" d="M59 739q0 -199 84 -354.5t226 -255.5l-131 -172l38 -27l125 176q92 -59 199 -87.5t223 -28.5q158 0 298.5 55t246 157.5t166.5 242t61 303.5q0 184 -77.5 345.5t-225.5 266.5l113 151l-39 27l-109 -156q-84 53 -185 83t-222 30q-160 0 -304.5 -52t-252 -149.5t-171 -238 t-63.5 -316.5zM313 733q0 133 30 263t92.5 232.5t159.5 167t230 64.5q115 0 205.5 -50t151.5 -136l-740 -1043q-66 100 -97.5 230.5t-31.5 271.5zM469 201l739 1040q68 -104 100.5 -235.5t32.5 -260.5t-31.5 -258t-95 -232t-158.5 -169t-225 -66q-119 0 -207.5 46.5 t-154.5 134.5z" />
<glyph unicode="&#xd9;" horiz-adv-x="1708" d="M72 1454q53 -6 95 -21.5t71 -50.5q12 -14 18 -39.5t9 -57.5t3 -68v-74v-273q0 -113 -1 -205t-1 -149q0 -25 3 -75t20.5 -110.5t53.5 -123t101.5 -114.5t167 -82.5t248.5 -30.5q150 0 252 31.5t168 86t101.5 121t52 133t19.5 126t5 97.5q4 137 7 246t5 197q0 47 2.5 95 t6.5 91t9 76t11 47q25 59 69 88t120 39v21h-508v-21q98 -14 148 -50t71 -93q8 -20 12 -54t6 -73t3 -82t1 -84v-84v-80v-84v-100q0 -70 -5 -142.5t-20.5 -142.5t-47 -131t-86 -108.5t-135 -74t-197.5 -26.5q-102 0 -182 34t-135.5 96.5t-86 151.5t-32.5 197q0 49 -1 93.5 t-1 91.5v104v125v125v86t1 68.5t3 72.5q2 47 20.5 78t45 48.5t59 25.5t61.5 12v21h-610v-21zM633 1849l360 -293l23 15l-279 342q-45 0 -69.5 -18.5t-34.5 -34.5v-11z" />
<glyph unicode="&#xda;" horiz-adv-x="1708" d="M72 1454q53 -6 95 -21.5t71 -50.5q12 -14 18 -39.5t9 -57.5t3 -68v-74v-273q0 -113 -1 -205t-1 -149q0 -25 3 -75t20.5 -110.5t53.5 -123t101.5 -114.5t167 -82.5t248.5 -30.5q150 0 252 31.5t168 86t101.5 121t52 133t19.5 126t5 97.5q4 137 7 246t5 197q0 47 2.5 95 t6.5 91t9 76t11 47q25 59 69 88t120 39v21h-508v-21q98 -14 148 -50t71 -93q8 -20 12 -54t6 -73t3 -82t1 -84v-84v-80v-84v-100q0 -70 -5 -142.5t-20.5 -142.5t-47 -131t-86 -108.5t-135 -74t-197.5 -26.5q-102 0 -182 34t-135.5 96.5t-86 151.5t-32.5 197q0 49 -1 93.5 t-1 91.5v104v125v121v82t1 67.5t3 81.5q2 47 20.5 78t45 48.5t59 25.5t61.5 12v21h-610v-21zM795 1571l22 -15l361 293v11q-10 16 -35 34.5t-70 18.5z" />
<glyph unicode="&#xdb;" horiz-adv-x="1708" d="M72 1454q53 -6 95 -21.5t71 -50.5q12 -14 18 -39.5t9 -57.5t3 -68v-74v-273q0 -113 -1 -205t-1 -149q0 -25 3 -75t20.5 -110.5t53.5 -123t101.5 -114.5t167 -82.5t248.5 -30.5q150 0 252 31.5t168 86t101.5 121t52 133t19.5 126t5 97.5q4 137 7 246t5 197q0 47 2.5 95 t6.5 91t9 76t11 47q25 59 69 88t120 39v21h-508v-21q98 -14 148 -50t71 -93q8 -20 12 -54t6 -73t3 -82t1 -84v-84v-80v-84v-100q0 -70 -5 -142.5t-20.5 -142.5t-47 -131t-86 -108.5t-135 -74t-197.5 -26.5q-102 0 -182 34t-135.5 96.5t-86 151.5t-32.5 197q0 49 -1 93.5 t-1 91.5v104v125v125v84q0 37 1 68.5t3 74.5q2 47 20.5 78t45 48.5t59 25.5t61.5 12v21h-610v-21zM690 1579l27 -14l205 213l206 -213l27 14l-217 334h-31z" />
<glyph unicode="&#xdc;" horiz-adv-x="1708" d="M72 1454q53 -6 95 -21.5t71 -50.5q12 -14 18 -39.5t9 -57.5t3 -68v-74v-273q0 -113 -1 -205t-1 -149q0 -25 3 -75t20.5 -110.5t53.5 -123t101.5 -114.5t167 -82.5t248.5 -30.5q150 0 252 31.5t168 86t101.5 121t52 133t19.5 126t5 97.5q4 137 7 246t5 197q0 47 2.5 95 t6.5 91t9 76t11 47q25 59 69 88t120 39v21h-508v-21q98 -14 148 -50t71 -93q8 -20 12 -54t6 -73t3 -82t1 -84v-84v-80v-84v-100q0 -70 -5 -142.5t-20.5 -142.5t-47 -131t-86 -108.5t-135 -74t-197.5 -26.5q-102 0 -182 34t-135.5 96.5t-86 151.5t-32.5 197q0 49 -1 93.5 t-1 91.5v104v125v104v78t1 74t3 96q2 47 20.5 78t45 48.5t59 25.5t61.5 12v21h-610v-21zM647 1700q0 -39 27.5 -66.5t66.5 -27.5t67 27.5t28 66.5t-28 66.5t-67 27.5t-66.5 -27.5t-27.5 -66.5zM1010 1700q0 -39 27.5 -66.5t66.5 -27.5t66.5 27.5t27.5 66.5t-27.5 66.5 t-66.5 27.5t-66.5 -27.5t-27.5 -66.5z" />
<glyph unicode="&#xdd;" horiz-adv-x="1329" d="M-51 1454q41 -2 72.5 -22.5t64.5 -55.5t64.5 -84t70.5 -108q20 -31 50 -78t64 -102.5t68.5 -111.5t64.5 -105.5t51.5 -84t29.5 -47.5q0 -113 -1 -191.5t-3 -135.5q0 -33 -1 -68t-4 -65.5t-8.5 -55t-15.5 -35.5q-45 -51 -85 -64t-93 -20v-20h631v20q-45 8 -94.5 22.5 t-79.5 59.5q-16 23 -19.5 79.5t-3.5 115.5v412q25 37 68 102.5t89 137t90 138t68 105.5q37 57 69 102t66.5 78t76 53.5t98.5 28.5v21h-473v-21q29 -4 59.5 -9t56 -15.5t42 -29t16.5 -50.5q0 -20 -8.5 -45t-19.5 -48.5t-23.5 -45t-22.5 -37.5q-18 -33 -54 -90.5t-76 -120 t-79 -123t-65 -99.5q-33 55 -71 117t-75 120t-67.5 110.5t-53.5 89.5q-33 55 -62.5 109t-29.5 81t16.5 42t43 24.5t57.5 13.5t61 6v21h-620v-21zM592 1571l22 -15l361 293v11q-10 16 -35 34.5t-70 18.5z" />
<glyph unicode="&#xde;" horiz-adv-x="1343" d="M76 1454q55 -8 103 -19.5t79 -43.5q12 -12 19.5 -40t10.5 -62t4 -71.5t1 -74.5v-400v-118q0 -61 -1 -120t-2 -108t-1 -78q0 -33 -2 -67.5t-5 -65t-9.5 -55.5t-16.5 -37q-27 -33 -74 -49t-98 -25v-20h659v20q-84 4 -134 31t-66 53q-12 18 -17.5 50t-7.5 67t-2 68v51h111 q61 0 125.5 5t130 15.5t123.5 30.5q55 20 108 56t93 85.5t64.5 112.5t24.5 139q0 127 -58 215t-150.5 135.5t-197 60.5t-239.5 13q-27 0 -56.5 -1t-78.5 -1q0 86 8 126t23 57q27 33 73 46t101 19v21h-645v-21zM516 369v123v155v168v158t1 125t1 71q14 2 41 4.5t70 2.5 q59 0 118.5 -8.5t108.5 -30.5q98 -47 155.5 -139.5t57.5 -211.5q0 -129 -66.5 -234.5t-197.5 -150.5q-63 -23 -134 -27.5t-155 -4.5z" />
<glyph unicode="&#xdf;" horiz-adv-x="1097" d="M18 0h441v20q-39 4 -77 18.5t-38 41.5v889v53q0 23 2 45.5t4 50t4 68.5q6 96 37 149.5t66 80t67.5 31.5t44.5 5q96 -10 150.5 -74.5t54.5 -169.5q0 -80 -9 -124t-26.5 -70.5t-43 -46t-60.5 -49.5q-43 -41 -69.5 -78t-26.5 -99q0 -78 43 -131t96 -98q51 -43 100 -77 t96 -73q66 -53 66 -153q0 -37 -10 -70t-29.5 -58.5t-48.5 -40.5t-68 -15q-45 0 -85 22.5t-71.5 58t-57 83t-42.5 96.5h-18v-242q29 -14 61.5 -24.5t63.5 -14.5t58.5 -5t41.5 -1q80 0 143.5 19.5t107.5 58.5t68.5 92.5t24.5 114.5q0 96 -36.5 150t-106.5 108q-45 35 -78 58.5 t-76 57.5q-35 29 -64.5 69t-29.5 101q0 47 15.5 80t40 58.5t51 50t51 55.5t40 72t15.5 102q0 33 -11 76t-43 81t-89.5 63.5t-149.5 25.5q-63 0 -124.5 -19.5t-116 -54.5t-96.5 -85t-66 -109q-18 -45 -23.5 -104.5t-5.5 -133.5l-149 -84v-22h147v-793q0 -16 -15.5 -27.5 t-39 -18.5t-50 -12t-51.5 -8v-20z" />
<glyph unicode="&#xe0;" horiz-adv-x="917" d="M63 702q0 -31 24 -54t56 -23q35 0 65 22.5t30 50.5v93q0 12 14 29.5t38.5 34.5t56.5 28.5t65 11.5q49 0 79.5 -13.5t48 -29.5t24.5 -31.5t7 -19.5v-211q-20 -12 -49.5 -27.5t-68.5 -37t-91.5 -52.5t-120 -74t-113.5 -96t-46 -110q0 -53 17.5 -90t45 -61t61.5 -33t66 -9 q55 0 101.5 17.5t84.5 46t65.5 61.5t43.5 59l4 -2q0 -102 54.5 -143t124.5 -41q43 0 79.5 15.5t64.5 44t43 66.5t15 77h-12q-8 -31 -30.5 -50.5t-69.5 -19.5q-39 0 -72 29.5t-33 122.5q0 70 1 128t1 113t1 114.5t1 133.5q0 35 -2 71t-10 50q-20 41 -67.5 68.5t-100.5 27.5 q-27 0 -68.5 -12t-92 -32.5t-105.5 -49.5t-109 -59q-16 -10 -37.5 -22.5t-40 -29t-31 -37t-12.5 -45.5zM244 264q0 53 37.5 95t90 77t108 64.5t91.5 56.5v-315q0 -35 -24 -58q-35 -35 -76 -47t-94 -12q-59 0 -96 43t-37 96zM283 1366l280 -313l21 12l-207 360 q-45 0 -63.5 -16t-30.5 -33v-10z" />
<glyph unicode="&#xe1;" horiz-adv-x="917" d="M63 702q0 -31 24 -54t56 -23q35 0 65 22.5t30 50.5v93q0 12 14 29.5t38.5 34.5t56.5 28.5t65 11.5q49 0 79.5 -13.5t48 -29.5t24.5 -31.5t7 -19.5v-211q-20 -12 -49.5 -27.5t-68.5 -37t-91.5 -52.5t-120 -74t-113.5 -96t-46 -110q0 -53 17.5 -90t45 -61t61.5 -33t66 -9 q55 0 101.5 17.5t84.5 46t65.5 61.5t43.5 59l4 -2q0 -102 54.5 -143t124.5 -41q43 0 79.5 15.5t64.5 44t43 66.5t15 77h-12q-8 -31 -30.5 -50.5t-69.5 -19.5q-39 0 -72 29.5t-33 122.5q0 70 1 128t1 113t1 114.5t1 133.5q0 35 -2 71t-10 50q-20 41 -67.5 68.5t-100.5 27.5 q-27 0 -68.5 -12t-92 -32.5t-105.5 -49.5t-109 -59q-16 -10 -37.5 -22.5t-40 -29t-31 -37t-12.5 -45.5zM244 264q0 53 37.5 95t90 77t108 64.5t91.5 56.5v-315q0 -35 -24 -58q-35 -35 -76 -47t-94 -12q-59 0 -96 43t-37 96zM365 1065l20 -12l287 313v10q-12 16 -30.5 32.5 t-63.5 16.5z" />
<glyph unicode="&#xe2;" horiz-adv-x="917" d="M63 702q0 -31 24 -54t56 -23q35 0 65 22.5t30 50.5v93q0 12 14 29.5t38.5 34.5t56.5 28.5t65 11.5q49 0 79.5 -13.5t48 -29.5t24.5 -31.5t7 -19.5v-211q-20 -12 -49.5 -27.5t-68.5 -37t-91.5 -52.5t-120 -74t-113.5 -96t-46 -110q0 -53 17.5 -90t45 -61t61.5 -33t66 -9 q55 0 101.5 17.5t84.5 46t65.5 61.5t43.5 59l4 -2q0 -102 54.5 -143t124.5 -41q43 0 79.5 15.5t64.5 44t43 66.5t15 77h-12q-8 -31 -30.5 -50.5t-69.5 -19.5q-39 0 -72 29.5t-33 122.5q0 70 1 128t1 113t1 114.5t1 133.5q0 35 -2 71t-10 50q-20 41 -67.5 68.5t-100.5 27.5 q-27 0 -68.5 -12t-92 -32.5t-105.5 -49.5t-109 -59q-16 -10 -37.5 -22.5t-40 -29t-31 -37t-12.5 -45.5zM229 1081l25 -14l184 227l187 -227l24 14l-194 349h-31zM244 264q0 53 37.5 95t90 77t108 64.5t91.5 56.5v-315q0 -35 -24 -58q-35 -35 -76 -47t-94 -12q-59 0 -96 43 t-37 96z" />
<glyph unicode="&#xe3;" horiz-adv-x="917" d="M63 702q0 -31 24 -54t56 -23q35 0 65 22.5t30 50.5v93q0 12 14 29.5t38.5 34.5t56.5 28.5t65 11.5q49 0 79.5 -13.5t48 -29.5t24.5 -31.5t7 -19.5v-211q-20 -12 -49.5 -27.5t-68.5 -37t-91.5 -52.5t-120 -74t-113.5 -96t-46 -110q0 -53 17.5 -90t45 -61t61.5 -33t66 -9 q55 0 101.5 17.5t84.5 46t65.5 61.5t43.5 59l4 -2q0 -102 54.5 -143t124.5 -41q43 0 79.5 15.5t64.5 44t43 66.5t15 77h-12q-8 -31 -30.5 -50.5t-69.5 -19.5q-39 0 -72 29.5t-33 122.5q0 70 1 128t1 113t1 114.5t1 133.5q0 35 -2 71t-10 50q-20 41 -67.5 68.5t-100.5 27.5 q-27 0 -68.5 -12t-92 -32.5t-105.5 -49.5t-109 -59q-16 -10 -37.5 -22.5t-40 -29t-31 -37t-12.5 -45.5zM141 1096h27q14 37 26.5 55t31 27.5t45 10.5t65.5 1l178 -39q57 0 96 17.5t65.5 47t43 67.5t26.5 79h-28q-14 -70 -57.5 -87.5t-118.5 -17.5l-174 39q-96 0 -149.5 -56 t-76.5 -144zM244 264q0 53 37.5 95t90 77t108 64.5t91.5 56.5v-315q0 -35 -24 -58q-35 -35 -76 -47t-94 -12q-59 0 -96 43t-37 96z" />
<glyph unicode="&#xe4;" horiz-adv-x="917" d="M63 702q0 -31 24 -54t56 -23q35 0 65 22.5t30 50.5v93q0 12 14 29.5t38.5 34.5t56.5 28.5t65 11.5q49 0 79.5 -13.5t48 -29.5t24.5 -31.5t7 -19.5v-211q-20 -12 -49.5 -27.5t-68.5 -37t-91.5 -52.5t-120 -74t-113.5 -96t-46 -110q0 -53 17.5 -90t45 -61t61.5 -33t66 -9 q55 0 101.5 17.5t84.5 46t65.5 61.5t43.5 59l4 -2q0 -102 54.5 -143t124.5 -41q43 0 79.5 15.5t64.5 44t43 66.5t15 77h-12q-8 -31 -30.5 -50.5t-69.5 -19.5q-39 0 -72 29.5t-33 122.5q0 70 1 128t1 113t1 114.5t1 133.5q0 35 -2 71t-10 50q-20 41 -67.5 68.5t-100.5 27.5 q-27 0 -68.5 -12t-92 -32.5t-105.5 -49.5t-109 -59q-16 -10 -37.5 -22.5t-40 -29t-31 -37t-12.5 -45.5zM203 1229q0 -39 27.5 -66.5t66.5 -27.5t66.5 27.5t27.5 66.5t-27.5 66.5t-66.5 27.5t-66.5 -27.5t-27.5 -66.5zM244 264q0 53 37.5 95t90 77t108 64.5t91.5 56.5v-315 q0 -35 -24 -58q-35 -35 -76 -47t-94 -12q-59 0 -96 43t-37 96zM524 1229q0 -39 28 -66.5t66 -27.5q39 0 67 27.5t28 66.5t-28 66.5t-67 27.5t-66.5 -27.5t-27.5 -66.5z" />
<glyph unicode="&#xe5;" horiz-adv-x="917" d="M63 702q0 -31 24 -54t56 -23q35 0 65 22.5t30 50.5v93q0 12 14 29.5t38.5 34.5t56.5 28.5t65 11.5q49 0 79.5 -13.5t48 -29.5t24.5 -31.5t7 -19.5v-211q-20 -12 -49.5 -27.5t-68.5 -37t-91.5 -52.5t-120 -74t-113.5 -96t-46 -110q0 -53 17.5 -90t45 -61t61.5 -33t66 -9 q55 0 101.5 17.5t84.5 46t65.5 61.5t43.5 59l4 -2q0 -102 54.5 -143t124.5 -41q43 0 79.5 15.5t64.5 44t43 66.5t15 77h-12q-8 -31 -30.5 -50.5t-69.5 -19.5q-39 0 -72 29.5t-33 122.5q0 70 1 128t1 113t1 114.5t1 133.5q0 35 -2 71t-10 50q-20 41 -67.5 68.5t-100.5 27.5 q-27 0 -68.5 -12t-92 -32.5t-105.5 -49.5t-109 -59q-16 -10 -37.5 -22.5t-40 -29t-31 -37t-12.5 -45.5zM244 264q0 53 37.5 95t90 77t108 64.5t91.5 56.5v-315q0 -35 -24 -58q-35 -35 -76 -47t-94 -12q-59 0 -96 43t-37 96zM322 1212q0 -66 42 -106.5t109 -40.5q66 0 109 42 t43 105q0 66 -43 107t-109 41q-63 0 -107 -42t-44 -106zM377 1212q0 47 26.5 77t69.5 30q45 0 70.5 -31t25.5 -76t-25.5 -75.5t-70.5 -30.5t-70.5 30.5t-25.5 75.5z" />
<glyph unicode="&#xe6;" horiz-adv-x="1406" d="M63 702q0 -31 24 -54t56 -23q35 0 65 22.5t30 50.5v93q0 14 14 32.5t38.5 33.5t55.5 26.5t64 11.5q49 0 79.5 -13.5t48 -29.5t24.5 -31.5t7 -19.5v-213q-20 -12 -57 -32.5t-83 -45.5t-96 -52.5t-97 -58.5q-66 -43 -112 -96t-46 -113q0 -53 17.5 -90t44 -60.5t59 -32.5 t65.5 -9q55 0 106.5 19.5t98.5 53t86 79t70 90.5q25 -51 62.5 -95.5t88.5 -78t111.5 -51t128.5 -17.5q84 0 152.5 30.5t117.5 79t78 104.5t37 101l-17 4q-25 -76 -101.5 -129t-178.5 -53q-90 0 -158.5 32t-116 89t-72 136t-24.5 173q0 25 1 47.5t1 38.5h645 q-6 164 -109.5 251t-279.5 87q-78 0 -144.5 -27.5t-119.5 -76.5q-18 47 -67.5 75.5t-102.5 28.5q-27 0 -67.5 -12t-91 -32.5t-105.5 -49.5t-109 -59q-16 -10 -37.5 -22.5t-40 -29t-31 -37t-12.5 -45.5zM238 262q0 53 37.5 95t91 77t109.5 64.5t93 56.5v-344 q-35 -51 -84 -70.5t-114 -19.5q-59 0 -96 44t-37 97zM737 684q0 31 17.5 77t50.5 89t80 73.5t108 30.5q88 0 137.5 -54t49.5 -130q0 -29 -7.5 -43t-21.5 -31q-20 -8 -47 -10t-57 -2h-310z" />
<glyph unicode="&#xe7;" horiz-adv-x="884" d="M41 496q0 -104 34 -196.5t94 -161t143 -105.5t182 -37q70 0 114 10l-196 -160q74 -25 111.5 -67.5t37.5 -95.5q0 -55 -26.5 -84t-63.5 -29q-45 0 -45 63q0 8 1 18.5t1 22.5q-18 23 -59 23q-35 0 -49.5 -19.5t-14.5 -39.5q0 -49 43 -71t113 -22q29 0 65.5 11.5t70.5 34 t56.5 57.5t22.5 82q0 12 -4 34.5t-19.5 48t-46.5 52t-82 45.5l156 113q31 23 64.5 52t65.5 64t56.5 75t36.5 79l-16 8q-49 -82 -122 -126t-202 -44q-80 0 -144.5 31t-109.5 86t-69.5 132t-24.5 169q0 84 22.5 157.5t61.5 129t92 88t117 32.5q86 0 126 -50t40 -126 q0 -41 -10 -69q8 -31 35.5 -51.5t62.5 -20.5q43 0 74.5 31.5t31.5 74.5q0 59 -31.5 104.5t-83 76t-117 47t-132.5 16.5q-100 0 -185.5 -41t-146.5 -108.5t-96 -156.5t-35 -187z" />
<glyph unicode="&#xe8;" horiz-adv-x="890" d="M39 514q0 -106 32.5 -201.5t93 -166t146.5 -109.5t191 -39q84 0 152.5 30.5t117.5 78t78 103.5t37 101l-17 4q-25 -76 -101.5 -128t-178.5 -52q-94 0 -166 35t-119 95.5t-71.5 139t-24.5 164.5q0 23 2 44.5t2 37.5h657q-6 86 -38.5 149.5t-85 105.5t-123 62.5 t-150.5 20.5q-98 0 -179 -42t-137.5 -109.5t-87 -152.5t-30.5 -171zM217 680q4 25 22.5 71t52.5 91t80 78.5t103 33.5q88 0 140.5 -54t52.5 -130q0 -29 -7.5 -43t-21.5 -31q-20 -8 -47 -10t-57 -2q-47 0 -86 -1t-75 -2t-73 -1h-84zM279 1366l280 -313l21 12l-207 360 q-45 0 -63.5 -16t-30.5 -33v-10z" />
<glyph unicode="&#xe9;" horiz-adv-x="890" d="M39 514q0 -106 32.5 -201.5t93 -166t146.5 -109.5t191 -39q84 0 152.5 30.5t117.5 78t78 103.5t37 101l-17 4q-25 -76 -101.5 -128t-178.5 -52q-94 0 -166 35t-119 95.5t-71.5 139t-24.5 164.5q0 23 2 44.5t2 37.5h657q-6 86 -38.5 149.5t-85 105.5t-123 62.5 t-150.5 20.5q-98 0 -179 -42t-137.5 -109.5t-87 -152.5t-30.5 -171zM217 680q4 25 22.5 71t52.5 91t80 78.5t103 33.5q88 0 140.5 -54t52.5 -130q0 -29 -7.5 -43t-21.5 -31q-20 -8 -47 -10t-57 -2q-47 0 -86 -1t-75 -2t-73 -1h-84zM389 1065l21 -12l286 313v10 q-12 16 -30.5 32.5t-63.5 16.5z" />
<glyph unicode="&#xea;" horiz-adv-x="890" d="M39 514q0 -106 32.5 -201.5t93 -166t146.5 -109.5t191 -39q84 0 152.5 30.5t117.5 78t78 103.5t37 101l-17 4q-25 -76 -101.5 -128t-178.5 -52q-94 0 -166 35t-119 95.5t-71.5 139t-24.5 164.5q0 23 2 44.5t2 37.5h657q-6 86 -38.5 149.5t-85 105.5t-123 62.5 t-150.5 20.5q-98 0 -179 -42t-137.5 -109.5t-87 -152.5t-30.5 -171zM217 680q4 25 22.5 71t52.5 91t80 78.5t103 33.5q88 0 140.5 -54t52.5 -130q0 -29 -7.5 -43t-21.5 -31q-20 -8 -47 -10t-57 -2q-47 0 -86 -1t-75 -2t-73 -1h-84zM281 1081l24 -14l184 227l187 -227l24 14 l-194 349h-31z" />
<glyph unicode="&#xeb;" horiz-adv-x="890" d="M39 514q0 -106 32.5 -201.5t93 -166t146.5 -109.5t191 -39q84 0 152.5 30.5t117.5 78t78 103.5t37 101l-17 4q-25 -76 -101.5 -128t-178.5 -52q-94 0 -166 35t-119 95.5t-71.5 139t-24.5 164.5q0 23 2 44.5t2 37.5h657q-6 86 -38.5 149.5t-85 105.5t-123 62.5 t-150.5 20.5q-98 0 -179 -42t-137.5 -109.5t-87 -152.5t-30.5 -171zM217 680q4 25 22.5 71t52.5 91t80 78.5t103 33.5q88 0 140.5 -54t52.5 -130q0 -29 -7.5 -43t-21.5 -31q-20 -8 -47 -10t-57 -2q-47 0 -86 -1t-75 -2t-73 -1h-84zM217 1229q0 -39 27.5 -66.5t66.5 -27.5 t67 27.5t28 66.5t-28 66.5t-67 27.5t-66.5 -27.5t-27.5 -66.5zM541 1229q0 -39 27.5 -66.5t66.5 -27.5t66.5 27.5t27.5 66.5t-27.5 66.5t-66.5 27.5t-66.5 -27.5t-27.5 -66.5z" />
<glyph unicode="&#xec;" horiz-adv-x="520" d="M37 0h440v20q-20 4 -41.5 5.5t-40 5.5t-32 13t-17.5 30v915h-12l-277 -90v-14q27 -10 53.5 -22.5t45.5 -22.5q16 -10 18 -18.5t2 -24.5v-711q0 -18 -13 -30.5t-32.5 -19.5t-44.5 -10t-49 -6v-20zM49 1366l281 -313l20 12l-207 360q-45 0 -63.5 -16t-30.5 -33v-10z" />
<glyph unicode="&#xed;" horiz-adv-x="520" d="M37 0h440v20q-20 4 -41.5 5.5t-40 5.5t-32 13t-17.5 30v915h-12l-277 -90v-14q27 -10 53.5 -22.5t45.5 -22.5q16 -10 18 -18.5t2 -24.5v-711q0 -18 -13 -30.5t-32.5 -19.5t-44.5 -10t-49 -6v-20zM117 1065l20 -12l287 313v10q-12 16 -30.5 32.5t-63.5 16.5z" />
<glyph unicode="&#xee;" horiz-adv-x="520" d="M37 0h440v20q-20 4 -41.5 5.5t-40 5.5t-32 13t-17.5 30v915h-12l-277 -90v-14q27 -10 53.5 -22.5t45.5 -22.5q16 -10 18 -18.5t2 -24.5v-711q0 -18 -13 -30.5t-32.5 -19.5t-44.5 -10t-49 -6v-20zM47 1081l25 -14l176 229l174 -231l24 14l-182 351h-31z" />
<glyph unicode="&#xef;" horiz-adv-x="520" d="M6 1229q0 -39 27.5 -66.5t66.5 -27.5t67 27.5t28 66.5t-28 66.5t-67 27.5t-66.5 -27.5t-27.5 -66.5zM37 0h440v20q-20 4 -41.5 5.5t-40 5.5t-32 13t-17.5 30v915h-12l-277 -90v-14q27 -10 53.5 -22.5t45.5 -22.5q16 -10 18 -18.5t2 -24.5v-711q0 -18 -13 -30.5 t-32.5 -19.5t-44.5 -10t-49 -6v-20zM297 1229q0 -39 27.5 -66.5t66.5 -27.5t66.5 27.5t27.5 66.5t-27.5 66.5t-66.5 27.5t-66.5 -27.5t-27.5 -66.5z" />
<glyph unicode="&#xf0;" horiz-adv-x="1028" d="M39 489q0 -100 33.5 -190t96 -158.5t151 -107.5t194.5 -39q98 0 185 41t150.5 117.5t100.5 183t37 231.5q0 113 -29.5 218.5t-84 199.5t-128 176t-159.5 148l190 127l-35 41l-198 -140q-92 57 -181.5 96.5t-181.5 55.5l-8 -29q72 -29 144.5 -73t140.5 -109l-234 -150 l31 -43l235 162q29 -27 62 -66.5t63.5 -84.5t55 -94.5t37.5 -94.5q-35 10 -85.5 21.5t-125.5 11.5q-102 0 -186.5 -36t-145 -97.5t-93 -143t-32.5 -174.5zM227 430q0 84 17.5 167t56.5 149.5t98.5 108.5t145.5 42q25 0 51.5 -5t51 -13.5t44 -18.5t27.5 -20q23 -29 38 -71 t25.5 -90t15.5 -100.5t5 -101.5q0 -219 -76 -336.5t-217 -117.5q-127 0 -205 107.5t-78 299.5z" />
<glyph unicode="&#xf1;" horiz-adv-x="1069" d="M57 0h387v20q-41 6 -67.5 10.5t-34.5 43.5v671q55 55 100 84t113 29q106 0 151.5 -72.5t45.5 -191.5v-516q0 -33 -33 -42t-88 -13v-23h418v18q-18 2 -40 5.5t-40.5 8.5t-31.5 15t-13 25v602q0 139 -63.5 227t-182.5 88q-55 0 -106.5 -21.5t-94.5 -54t-76.5 -72.5 t-56.5 -75l-4 2v221h-12l-269 -96v-12q25 -10 49.5 -23.5t43.5 -23.5q14 -10 17 -18.5t3 -24.5v-705q0 -33 -34 -47t-81 -19v-20zM252 1096h27q14 37 26 55t30.5 27.5t45.5 10.5t65 1l187 -39q57 0 96 17.5t65.5 47t43 67.5t26.5 79h-28q-14 -70 -57.5 -87.5t-119.5 -17.5 l-182 39q-96 0 -149.5 -56t-75.5 -144z" />
<glyph unicode="&#xf2;" horiz-adv-x="1046" d="M39 502q0 -131 46 -228.5t118.5 -160t159 -91t165.5 -28.5q96 0 183.5 39t153 108.5t104.5 163t39 197.5q0 123 -44 214t-113 151.5t-153 91t-166 30.5q-111 0 -201.5 -41t-155 -108.5t-100.5 -155.5t-36 -182zM229 489q0 86 19.5 169t57.5 149.5t91.5 107.5t120.5 41 q84 0 141.5 -44t92 -111.5t50 -147t15.5 -149.5q0 -72 -15.5 -156t-49 -156.5t-88 -120.5t-134.5 -48t-137 37.5t-94 102t-53.5 148.5t-16.5 178zM336 1366l280 -313l21 12l-207 360q-45 0 -63.5 -16t-30.5 -33v-10z" />
<glyph unicode="&#xf3;" horiz-adv-x="1046" d="M39 502q0 -131 46 -228.5t118.5 -160t159 -91t165.5 -28.5q96 0 183.5 39t153 108.5t104.5 163t39 197.5q0 123 -44 214t-113 151.5t-153 91t-166 30.5q-111 0 -201.5 -41t-155 -108.5t-100.5 -155.5t-36 -182zM229 489q0 86 19.5 169t57.5 149.5t91.5 107.5t120.5 41 q84 0 141.5 -44t92 -111.5t50 -147t15.5 -149.5q0 -72 -15.5 -156t-49 -156.5t-88 -120.5t-134.5 -48t-137 37.5t-94 102t-53.5 148.5t-16.5 178zM414 1065l20 -12l287 313v10q-12 16 -30.5 32.5t-63.5 16.5z" />
<glyph unicode="&#xf4;" horiz-adv-x="1046" d="M39 502q0 -131 46 -228.5t118.5 -160t159 -91t165.5 -28.5q96 0 183.5 39t153 108.5t104.5 163t39 197.5q0 123 -44 214t-113 151.5t-153 91t-166 30.5q-111 0 -201.5 -41t-155 -108.5t-100.5 -155.5t-36 -182zM229 489q0 86 19.5 169t57.5 149.5t91.5 107.5t120.5 41 q84 0 141.5 -44t92 -111.5t50 -147t15.5 -149.5q0 -72 -15.5 -156t-49 -156.5t-88 -120.5t-134.5 -48t-137 37.5t-94 102t-53.5 148.5t-16.5 178zM315 1081l25 -14l184 227l187 -227l24 14l-194 349h-31z" />
<glyph unicode="&#xf5;" horiz-adv-x="1046" d="M39 502q0 -131 46 -228.5t118.5 -160t159 -91t165.5 -28.5q96 0 183.5 39t153 108.5t104.5 163t39 197.5q0 123 -44 214t-113 151.5t-153 91t-166 30.5q-111 0 -201.5 -41t-155 -108.5t-100.5 -155.5t-36 -182zM215 1096h27q14 37 26.5 55t30.5 27.5t45 10.5t66 1 l186 -39q57 0 96 17.5t65.5 47t43 67.5t26.5 79h-28q-14 -70 -57.5 -87.5t-118.5 -17.5l-183 39q-96 0 -149 -56t-76 -144zM229 489q0 86 19.5 169t57.5 149.5t91.5 107.5t120.5 41q84 0 141.5 -44t92 -111.5t50 -147t15.5 -149.5q0 -72 -15.5 -156t-49 -156.5t-88 -120.5 t-134.5 -48t-137 37.5t-94 102t-53.5 148.5t-16.5 178z" />
<glyph unicode="&#xf6;" horiz-adv-x="1046" d="M39 502q0 -131 46 -228.5t118.5 -160t159 -91t165.5 -28.5q96 0 183.5 39t153 108.5t104.5 163t39 197.5q0 123 -44 214t-113 151.5t-153 91t-166 30.5q-111 0 -201.5 -41t-155 -108.5t-100.5 -155.5t-36 -182zM229 489q0 86 19.5 169t57.5 149.5t91.5 107.5t120.5 41 q84 0 141.5 -44t92 -111.5t50 -147t15.5 -149.5q0 -72 -15.5 -156t-49 -156.5t-88 -120.5t-134.5 -48t-137 37.5t-94 102t-53.5 148.5t-16.5 178zM260 1229q0 -39 27.5 -66.5t66.5 -27.5t67 27.5t28 66.5t-28 66.5t-67 27.5t-66.5 -27.5t-27.5 -66.5zM602 1229 q0 -39 27.5 -66.5t66.5 -27.5t67 27.5t28 66.5t-28 66.5t-67 27.5t-66.5 -27.5t-27.5 -66.5z" />
<glyph unicode="&#xf7;" horiz-adv-x="1433" d="M256 494h922v81h-922v-81zM608 229q0 -47 31 -77.5t80 -30.5q47 0 76.5 28.5t29.5 75.5q0 49 -29.5 83t-76.5 34q-49 0 -80 -33t-31 -80zM608 838q0 -47 31 -80t80 -33q47 0 76.5 34t29.5 83q0 47 -29.5 75.5t-76.5 28.5q-49 0 -80 -30.5t-31 -77.5z" />
<glyph unicode="&#xf8;" horiz-adv-x="1046" d="M39 502q0 -141 51 -239.5t129 -162.5l-137 -182l31 -22l131 186q68 -47 141.5 -67.5t142.5 -20.5q96 0 183.5 39t153 108.5t104.5 163t39 197.5q0 133 -50.5 229t-128.5 156l121 166l-30 20l-117 -168q-61 41 -132 62.5t-139 21.5q-111 0 -201.5 -41t-155 -108.5 t-100.5 -155.5t-36 -182zM227 489q0 86 20.5 169t57.5 149.5t91.5 107.5t121.5 41q78 0 131 -37t88 -94l-450 -641q-59 129 -60 305zM303 154l453 641q33 -68 48 -144.5t15 -146.5q0 -72 -15.5 -156t-50 -156.5t-89 -120.5t-134.5 -48q-78 0 -134 35.5t-93 95.5z" />
<glyph unicode="&#xf9;" horiz-adv-x="1071" d="M0 946q18 -2 38.5 -3t39 -5t34 -12t23.5 -27q4 -6 5 -19.5t3 -28.5t2 -30v-22v-500q0 -150 62.5 -227.5t193.5 -77.5q57 0 107.5 18.5t91.5 50t74 70.5t55 74l2 -2v-207h14l291 53v12q-25 10 -60.5 26.5t-53.5 27.5q-14 10 -17.5 18t-3.5 25v809h-344v-23q45 -4 87 -10 t67 -16q12 -16 16 -48t4 -53v-583q-18 -25 -39.5 -47.5t-47.5 -40t-57.5 -28.5t-74.5 -11q-113 0 -154 64.5t-41 199.5v596h-317v-23zM303 1366l281 -313l20 12l-207 360q-45 0 -63.5 -16t-30.5 -33v-10z" />
<glyph unicode="&#xfa;" horiz-adv-x="1071" d="M0 946q18 -2 38.5 -3t39 -5t34 -12t23.5 -27q4 -6 5 -19.5t3 -28.5t2 -30v-22v-500q0 -150 62.5 -227.5t193.5 -77.5q57 0 107.5 18.5t91.5 50t74 70.5t55 74l2 -2v-207h14l291 53v12q-25 10 -59.5 25.5t-54.5 28.5q-14 8 -17.5 17t-3.5 26v809h-344v-23q45 -4 87 -10 t67 -16q12 -16 16 -48t4 -53v-583q-18 -25 -39.5 -47.5t-47.5 -40t-57.5 -28.5t-74.5 -11q-113 0 -154 64.5t-41 199.5v596h-317v-23zM430 1065l21 -12l286 313v10q-12 16 -30.5 32.5t-63.5 16.5z" />
<glyph unicode="&#xfb;" horiz-adv-x="1071" d="M0 946q18 -2 38.5 -3t39 -5t34 -12t23.5 -27q4 -6 5 -19.5t3 -28.5t2 -30v-22v-500q0 -150 62.5 -227.5t193.5 -77.5q57 0 107.5 18.5t91.5 50t74 70.5t55 74l2 -2v-207h14l291 53v12q-25 10 -60.5 26.5t-53.5 27.5q-14 10 -17.5 18t-3.5 25v809h-344v-23q45 -4 87 -10 t67 -16q12 -16 16 -48t4 -53v-583q-18 -25 -39.5 -47.5t-47.5 -40t-57.5 -28.5t-74.5 -11q-113 0 -154 64.5t-41 199.5v596h-317v-23zM313 1081l25 -14l184 227l187 -227l24 14l-194 349h-31z" />
<glyph unicode="&#xfc;" horiz-adv-x="1071" d="M0 946q18 -2 38.5 -3t39 -5t34 -12t23.5 -27q4 -6 5 -19.5t3 -28.5t2 -30v-22v-500q0 -150 62.5 -227.5t193.5 -77.5q57 0 107.5 18.5t91.5 50t74 70.5t55 74l2 -2v-207h14l291 53v12q-25 10 -60.5 26.5t-53.5 27.5q-14 10 -17.5 18t-3.5 25v809h-344v-23q45 -4 87 -10 t67 -16q12 -16 16 -48t4 -53v-583q-18 -25 -39.5 -47.5t-47.5 -40t-57.5 -28.5t-74.5 -11q-113 0 -154 64.5t-41 199.5v596h-317v-23zM246 1229q0 -39 27.5 -66.5t66.5 -27.5t66.5 27.5t27.5 66.5t-27.5 66.5t-66.5 27.5t-66.5 -27.5t-27.5 -66.5zM588 1229 q0 -39 27.5 -66.5t66.5 -27.5t66.5 27.5t27.5 66.5t-27.5 66.5t-66.5 27.5t-66.5 -27.5t-27.5 -66.5z" />
<glyph unicode="&#xfd;" horiz-adv-x="851" d="M-70 946q70 -4 95.5 -16t44.5 -33q31 -84 67.5 -184.5t74.5 -203.5t75 -201.5t65.5 -177.5t47 -129t22.5 -58q-2 -10 -10.5 -41t-21.5 -75t-30.5 -98.5t-40.5 -109.5h-4q-29 27 -56.5 51.5t-68.5 24.5t-65.5 -26.5t-24.5 -67.5t35 -67t76 -26q47 0 92 35t70 113 q35 109 72.5 229.5t75.5 243.5t75 239.5t67.5 214t53 169t33 104.5t27 50.5t38 25.5t44.5 10t48 4v23h-315v-23q18 -2 38.5 -4t38 -8t28 -17.5t10.5 -29.5q0 -12 -13.5 -62.5t-34 -121t-45 -150.5t-47 -152.5t-39 -126t-22.5 -69.5q-18 49 -43 115.5t-50.5 138t-51 142.5 t-46 130.5t-33 99t-12.5 50.5q0 39 32 49t75 16v23h-447v-23zM381 1065l20 -12l287 313v10q-12 16 -30.5 32.5t-63.5 16.5z" />
<glyph unicode="&#xfe;" horiz-adv-x="1077" d="M-16 -449v-22h503v22q-25 2 -53 5.5t-53 8.5t-42 15t-20 27v96t-1 120.5t-2 118t-1 85.5q78 -18 148 -19q133 0 239.5 40t180 110.5t113.5 169t40 213.5q0 82 -23.5 161.5t-69.5 143t-116.5 103.5t-167.5 40q-57 0 -109 -20.5t-95 -52t-78 -73.5t-60 -85l-4 2l6 727h-16 l-285 -125v-12l129 -68v-1661q0 -16 -17 -28.5t-43 -20.5t-54.5 -13t-48.5 -8zM317 307v393q0 12 14.5 39t43 52.5t71.5 45t99 19.5q78 0 136 -29.5t96 -81t56.5 -119t18.5 -145.5q0 -94 -25.5 -174t-68.5 -137t-98.5 -90t-114.5 -33q-68 0 -112 24.5t-68.5 62.5t-35 84 t-12.5 89z" />
<glyph unicode="&#xff;" horiz-adv-x="851" d="M-70 946q70 -4 95.5 -16t44.5 -33q31 -84 67.5 -184.5t74.5 -203.5t75 -201.5t65.5 -177.5t47 -129t22.5 -58q-2 -10 -10.5 -41t-21.5 -75t-30.5 -98.5t-40.5 -109.5h-4q-29 27 -56.5 51.5t-68.5 24.5t-65.5 -26.5t-24.5 -67.5t35 -67t76 -26q47 0 92 35t70 113 q35 109 72.5 229.5t75.5 243.5t75 239.5t67.5 214t53 169t33 104.5t27 50.5t38 25.5t44.5 10t48 4v23h-315v-23q18 -2 38.5 -4t38 -8t28 -17.5t10.5 -29.5q0 -12 -13.5 -62.5t-34 -121t-45 -150.5t-47 -152.5t-39 -126t-22.5 -69.5q-18 49 -43 115.5t-50.5 138t-51 142.5 t-46 130.5t-33 99t-12.5 50.5q0 39 32 49t75 16v23h-447v-23zM219 1229q0 -39 27.5 -66.5t66.5 -27.5t67 27.5t28 66.5t-28 66.5t-67 27.5t-66.5 -27.5t-27.5 -66.5zM543 1229q0 -39 27.5 -66.5t66.5 -27.5t66.5 27.5t27.5 66.5t-27.5 66.5t-66.5 27.5t-66.5 -27.5 t-27.5 -66.5z" />
<glyph unicode="&#x152;" horiz-adv-x="2007" d="M59 737q0 -158 59.5 -294t162 -235t239.5 -154.5t293 -55.5q33 0 74 1t81 1h73.5h50.5h770l98 377l-23 6q-51 -88 -99 -148.5t-98 -100.5t-104.5 -61.5t-119.5 -29.5q-59 -8 -124 -10t-100 -2h-53t-67.5 1t-65.5 2t-49 1v6q109 31 203 95.5t164.5 152.5t113.5 195.5 t51 226.5q37 -14 59.5 -42t38 -62t24.5 -72.5t20 -79.5h24v583h-24q-8 -49 -16.5 -87t-22 -67.5t-38 -50t-65.5 -36.5q-6 111 -48 216t-112.5 192t-167 148.5t-210.5 86.5v4q90 0 173 -2t150.5 -6t117.5 -11.5t73 -19.5q72 -35 146.5 -97.5t158.5 -166.5l20 10l-133 324 h-641q-45 0 -109.5 3t-148.5 3q-172 0 -317.5 -53.5t-253 -151.5t-168 -235.5t-60.5 -303.5zM313 731q0 129 28 253t86 223.5t146.5 164t210.5 76.5v-156q0 -86 1 -181t1 -189v-179v-196v-203q0 -98 -1 -182t-1 -137q-117 10 -206 71.5t-147 158.5t-88 220t-30 256z M1012 174v170v197v196h350q-2 -256 -94 -430t-254 -256q-2 47 -2 123zM1012 770v188v191q0 90 1 165t3 113q156 -80 246 -246.5t100 -404.5z" />
<glyph unicode="&#x153;" horiz-adv-x="1622" d="M39 502q0 -131 45 -228.5t113.5 -160t152.5 -91t162 -28.5q117 0 210 54t161 159q55 -98 146 -153.5t212 -55.5q82 0 148.5 30.5t113.5 78t76 103.5t37 101l-19 4q-23 -76 -97.5 -128t-172.5 -52q-92 0 -160.5 35t-114.5 95.5t-68.5 139t-22.5 164.5q0 23 2 44.5t2 37.5 h637q-6 86 -38 149.5t-83 105.5t-120 62.5t-147 20.5q-55 0 -104 -16.5t-90 -44t-74 -62.5t-57 -73q-66 102 -167 149t-208 47q-106 0 -194.5 -41t-151 -108.5t-96 -155.5t-33.5 -182zM229 489q0 86 17.5 169t52.5 149.5t86 107.5t117 41q82 0 137 -43t89 -109.5t48.5 -146 t14.5 -153.5q0 -76 -14.5 -161t-48.5 -155.5t-86 -117.5t-130 -47t-131 37.5t-87 102t-49.5 148.5t-15.5 178zM969 680q0 29 18.5 75t50 90t77.5 76.5t102 32.5q86 0 135 -54t49 -130q0 -29 -5 -43t-20 -31q-18 -8 -47 -10t-57 -2q-45 0 -82 -1t-71 -2t-70 -1h-80z" />
<glyph unicode="&#x178;" horiz-adv-x="1329" d="M-51 1454q41 -2 72.5 -22.5t64.5 -55.5t64.5 -84t70.5 -108q20 -31 51 -80t66 -105.5t70.5 -116t65.5 -107.5t50.5 -80.5t24.5 -39.5q0 -113 -1 -191.5t-3 -135.5q0 -33 -1 -68t-4 -65.5t-8.5 -55t-15.5 -35.5q-47 -51 -86 -64t-92 -20v-20h631v20q-45 8 -94.5 22.5 t-79.5 59.5q-16 23 -19.5 79.5t-3.5 115.5v412q25 37 68 102.5t89 137t90 138t68 105.5q37 57 69 102t66.5 78t76 53.5t98.5 28.5v21h-473v-21q29 -4 59.5 -9t56 -15.5t42 -29t16.5 -50.5q0 -20 -8.5 -45t-19.5 -48.5t-23.5 -45t-22.5 -37.5q-18 -33 -54 -90.5t-76 -120 t-79 -123t-65 -99.5q-33 55 -71 117t-75 120t-67.5 110.5t-53.5 89.5q-33 55 -62.5 109t-29.5 81t16.5 42t43 24.5t57.5 13.5t61 6v21h-620v-21zM453 1700q0 -39 27.5 -66.5t66.5 -27.5t66.5 27.5t27.5 66.5t-27.5 66.5t-66.5 27.5t-66.5 -27.5t-27.5 -66.5zM815 1700 q0 -39 27.5 -66.5t66.5 -27.5t67 27.5t28 66.5t-28 66.5t-67 27.5t-66.5 -27.5t-27.5 -66.5z" />
<glyph unicode="&#x2c6;" d="M303 1081l25 -14l184 227l186 -227l25 14l-195 349h-30z" />
<glyph unicode="&#x2dc;" d="M203 1096h26q14 37 26.5 55t31 27.5t45 10.5t65.5 1l187 -39q57 0 96 17.5t65.5 47t43 67.5t26.5 79h-29q-14 -70 -57 -87.5t-119 -17.5l-182 39q-96 0 -149.5 -56t-75.5 -144z" />
<glyph unicode="&#x2000;" horiz-adv-x="956" />
<glyph unicode="&#x2001;" horiz-adv-x="1913" />
<glyph unicode="&#x2002;" horiz-adv-x="956" />
<glyph unicode="&#x2003;" horiz-adv-x="1913" />
<glyph unicode="&#x2004;" horiz-adv-x="637" />
<glyph unicode="&#x2005;" horiz-adv-x="478" />
<glyph unicode="&#x2006;" horiz-adv-x="318" />
<glyph unicode="&#x2007;" horiz-adv-x="318" />
<glyph unicode="&#x2008;" horiz-adv-x="239" />
<glyph unicode="&#x2009;" horiz-adv-x="382" />
<glyph unicode="&#x200a;" horiz-adv-x="106" />
<glyph unicode="&#x2010;" horiz-adv-x="524" d="M25 461h473v143h-473v-143z" />
<glyph unicode="&#x2011;" horiz-adv-x="524" d="M25 461h473v143h-473v-143z" />
<glyph unicode="&#x2012;" horiz-adv-x="524" d="M25 461h473v143h-473v-143z" />
<glyph unicode="&#x2013;" horiz-adv-x="942" d="M80 485h782v95h-782v-95z" />
<glyph unicode="&#x2014;" horiz-adv-x="1822" d="M188 485h1446v95h-1446v-95z" />
<glyph unicode="&#x2018;" horiz-adv-x="258" d="M-35 1251q0 -68 42 -117t112 -49q47 0 85 27t38 78q0 31 -21.5 58.5t-62.5 27.5q-16 0 -39 -5t-41 -20q-4 10 -8 25.5t-4 34.5q0 66 39.5 97.5t111.5 45.5v21q-49 0 -96 -15.5t-82 -45.5t-54.5 -70.5t-19.5 -92.5z" />
<glyph unicode="&#x2019;" horiz-adv-x="258" d="M16 1376q0 -31 21.5 -58.5t62.5 -27.5q16 0 39 5t41 20q4 -10 8.5 -25.5t4.5 -34.5q0 -66 -40 -97.5t-112 -45.5v-20q49 0 96 16t82 45t56.5 70t21.5 92q0 68 -44 117t-114 49q-47 0 -85 -27t-38 -78z" />
<glyph unicode="&#x201a;" horiz-adv-x="217" d="M0 111q0 -31 19.5 -58.5t60.5 -27.5q16 0 38.5 5t41.5 19q4 -10 8 -25.5t4 -29.5q0 -66 -40 -97.5t-112 -46.5v-20q49 0 96.5 15.5t82 45t56 69.5t21.5 89q0 68 -44 117t-113 49q-47 0 -83 -26.5t-36 -77.5z" />
<glyph unicode="&#x201c;" horiz-adv-x="546" d="M-29 1251q0 -68 39 -117t109 -49q47 0 83 27t36 78q0 31 -21.5 58.5t-62.5 27.5q-16 0 -34 -5t-36 -20q-12 23 -12 60q0 66 36.5 97.5t108.5 45.5v21q-49 0 -95 -15.5t-80 -45.5t-52.5 -70.5t-18.5 -92.5zM258 1251q0 -68 41 -117t111 -49q47 0 82.5 27t35.5 78 q0 31 -21.5 58.5t-62.5 27.5q-16 0 -33.5 -5t-35.5 -20q-12 18 -13 60q0 66 37 97.5t109 45.5v21q-49 0 -95 -15.5t-80 -45.5t-54.5 -70.5t-20.5 -92.5z" />
<glyph unicode="&#x201d;" horiz-adv-x="546" d="M18 1376q0 -31 21.5 -58.5t62.5 -27.5q16 0 34 5t36 20q12 -18 12 -60q0 -66 -36.5 -97.5t-108.5 -45.5v-20q49 0 95 16t80 45t54.5 70t20.5 92q0 68 -41 117t-111 49q-47 0 -83 -27t-36 -78zM309 1376q0 -31 21.5 -58.5t62.5 -27.5q16 0 33.5 5t36.5 20q12 -20 12 -60 q0 -66 -37 -97.5t-108 -45.5v-20q49 0 95 16t80 45t54.5 70t20.5 92q0 68 -41 117t-111 49q-47 0 -83 -27t-36 -78z" />
<glyph unicode="&#x201e;" horiz-adv-x="505" d="M0 111q0 -31 20.5 -58.5t61.5 -27.5q16 0 33.5 5t36.5 19q12 -18 12 -55q0 -66 -37 -97.5t-109 -46.5v-20q49 0 95.5 15.5t80 45t54 69.5t20.5 89q0 68 -41 117t-110 49q-47 0 -82 -26.5t-35 -77.5zM289 111q0 -31 21.5 -58.5t62.5 -27.5q16 0 33.5 5t35.5 19 q12 -20 13 -55q0 -66 -37 -97.5t-109 -46.5v-20q49 0 95.5 15.5t80 45t54 69.5t20.5 89q0 68 -41 117t-110 49q-47 0 -83 -26.5t-36 -77.5z" />
<glyph unicode="&#x2022;" horiz-adv-x="1138" d="M213 537q0 -74 27.5 -138.5t77 -113.5t114 -77t137.5 -28q74 0 139.5 28t113.5 77t77 113.5t29 138.5t-28 138t-76 113.5t-113.5 77t-141.5 27.5q-74 0 -138 -27.5t-113.5 -77t-77 -114t-27.5 -137.5z" />
<glyph unicode="&#x2026;" horiz-adv-x="1546" d="M182 113q0 -51 34 -83t85 -32t85 32t34 83t-34 84.5t-85 33.5t-85 -33.5t-34 -84.5zM653 113q0 -51 34 -83t85 -32t85 32t34 83t-34 84.5t-85 33.5t-85 -33.5t-34 -84.5zM1124 113q0 -51 34 -83t85 -32t85 32t34 83t-34 84.5t-85 33.5t-85 -33.5t-34 -84.5z" />
<glyph unicode="&#x202f;" horiz-adv-x="382" />
<glyph unicode="&#x2039;" horiz-adv-x="581" d="M96 518l369 -325l14 10l-194 321l192 320l-12 10l-369 -326v-10z" />
<glyph unicode="&#x203a;" horiz-adv-x="581" d="M102 203l15 -10l368 325v10l-368 326l-13 -10l193 -320z" />
<glyph unicode="&#x205f;" horiz-adv-x="478" />
<glyph unicode="&#x20ac;" horiz-adv-x="1523" d="M100 496h197q39 -172 170 -306q190 -190 471 -190q258 0 428 150v161q-178 -201 -428 -200q-227 0 -391 159q-100 96 -137 226h737l47 108h-805q-2 14 -2 27v28v27q0 14 2 29h852l45 110h-876q41 129 137 226q164 160 391 159q248 0 428 -196l47 110q-193 197 -475 197 q-281 0 -471 -191q-131 -133 -170 -305h-150l-47 -110h181q-2 -14 -2 -29v-27v-28q0 -12 2 -27h-134z" />
<glyph unicode="&#x2122;" horiz-adv-x="1325" d="M55 1335l15 -4q12 25 30.5 51.5t30.5 36.5q27 27 74 27h67q0 -41 1 -98.5t1 -98.5q0 -66 -1 -97.5t-1 -51.5q0 -14 -1 -33.5t-7 -30.5q-29 -31 -69 -30v-19h247v19q-16 0 -38.5 6t-32.5 20q-4 8 -6.5 27.5t-2.5 38.5v155v45q0 27 1.5 53.5t1.5 51.5v43h67q51 0 76 -23 q10 -10 24.5 -38.5t26.5 -53.5l16 4l-18 150q-16 -6 -30.5 -10.5t-37.5 -4.5h-337q-27 0 -40.5 5.5t-29.5 9.5zM590 987h203v19q-31 4 -48.5 11t-25.5 22.5t-10 38t-2 52.5v283q23 -47 72.5 -154.5t115.5 -259.5h16q10 23 21.5 53.5t19.5 45.5q23 49 40.5 87t33.5 74.5 t33.5 76.5t40.5 91v-331q0 -41 -18.5 -63.5t-71.5 -26.5v-19h256v21q-53 2 -64.5 23.5t-13.5 55.5q-2 39 -2 70v66v53q0 27 2 57q2 29 3 47.5t5 34.5q10 35 66 41v19h-175q-18 -45 -56 -134.5t-97 -216.5l-162 351h-168v-17q8 -2 20.5 -5t25 -10t20.5 -19.5t8 -30.5v-256 q0 -61 -20.5 -92t-67.5 -39v-19z" />
<glyph unicode="&#x25fc;" horiz-adv-x="972" d="M0 0v973h973v-973h-973z" />
<glyph unicode="&#xfb03;" horiz-adv-x="1624" d="M18 0h478v20q-20 4 -45 5.5t-47.5 6.5t-39 15t-20.5 31v799h387v-791q0 -16 -14.5 -27.5t-37 -18.5t-49 -12t-50.5 -8v-20h477v20q-20 4 -46 5.5t-48.5 6.5t-40 15t-21.5 31v803h348q16 0 23.5 -11.5t7.5 -27.5v-756q0 -18 -13.5 -30.5t-33 -19.5t-44 -10t-48.5 -6v-20 h440v20q-20 4 -41.5 5.5t-40 5.5t-32 13t-17.5 30v942h-16q-8 -18 -17.5 -29.5t-34.5 -19.5h-481v57q0 23 1 42t2 43t3 65q4 76 26.5 129t55.5 85.5t68 48t63 15.5h21q10 0 20 -4q39 -25 52.5 -55.5t25.5 -57t33.5 -44t75.5 -17.5q29 0 54 23.5t25 64.5q0 51 -59 90t-197 39 q-86 0 -167.5 -41t-135.5 -119q-14 23 -30.5 48.5t-45 48t-72.5 38t-112 15.5q-63 0 -124.5 -19.5t-116 -54.5t-96.5 -85t-66 -110q-18 -45 -23.5 -102t-5.5 -143h-100l-49 -90h147v-791q0 -16 -15.5 -27.5t-39 -18.5t-50 -12t-51.5 -8v-20zM344 967v55t1 40.5t3 46.5t4 67 q6 96 37 149t67 80t68.5 32t44.5 5q45 -6 75 -26.5t48.5 -44t28.5 -47.5t12 -38v-319h-389z" />
<glyph unicode="&#xfb04;" horiz-adv-x="1622" d="M18 0h482v20q-20 4 -46 5.5t-48.5 6.5t-40 15t-21.5 31v801h383v-793q0 -16 -15.5 -27.5t-39 -18.5t-50 -12t-51.5 -8v-20h484v20q-20 4 -46 5.5t-49.5 6.5t-41 15t-21.5 31v805h383v-795q0 -33 -28.5 -46t-123.5 -19v-23h474v23q-78 8 -115 14t-37 39v1419h-12l-52 -72 q-35 25 -91 43.5t-134 18.5q-94 0 -168.5 -40t-128.5 -99q-29 61 -88 98t-168 37q-63 0 -124.5 -19.5t-116 -54.5t-96.5 -85t-66 -110q-18 -45 -23.5 -102t-5.5 -143h-117l-32 -88h147v-793q0 -16 -15.5 -27.5t-39 -18.5t-50 -12t-51.5 -8v-20zM344 967v57q0 23 1 42t3 44 t4 66q8 96 38 150t66 80t68.5 32t44.5 6q39 -6 69 -27.5t50.5 -48.5t30.5 -51.5t12 -36.5v-313h-387zM897 967v59q0 23 1 43.5t2 45t3 65.5q6 96 37 149t67.5 80t70.5 32t46 5q55 -23 92 -57.5t66 -81.5v-340h-385z" />
</font>
</defs>
</svg>
